<svg width="64" height="50" viewBox="0 0 64 50" fill="none" xmlns="http://www.w3.org/2000/svg">
<path d="M18.3528 15.0998C17.8965 14.8897 17.6909 14.3519 17.9086 13.8992C20.2582 9.0136 24.1078 5.04372 28.8765 2.6097C33.91 0.0405318 39.656 -0.658501 45.1354 0.63171C50.6149 1.92192 55.4889 5.12155 58.9268 9.68541C62.3648 14.2493 64.154 19.895 63.9896 25.6606C63.8253 31.4262 61.7175 36.955 58.0254 41.3049C54.3334 45.6548 49.2855 48.5567 43.7419 49.5161C38.1983 50.4755 32.5019 49.4331 27.6234 46.5665C23.0015 43.8507 19.3847 39.6568 17.3174 34.6386C17.1259 34.1739 17.3628 33.6487 17.8311 33.4659V33.4659C18.3107 33.2788 18.8491 33.522 19.0472 33.9972C20.9644 38.5953 24.2919 42.4375 28.5361 44.9314C33.0459 47.5814 38.3118 48.545 43.4364 47.6581C48.5611 46.7712 53.2274 44.0886 56.6405 40.0675C60.0535 36.0463 62.0019 30.9354 62.1539 25.6055C62.3058 20.2757 60.6518 15.0566 57.4737 10.8377C54.2956 6.61873 49.79 3.66092 44.7247 2.46822C39.6593 1.27552 34.3476 1.92172 29.6945 4.29672C25.3166 6.53126 21.7767 10.1661 19.6007 14.6397C19.3749 15.1039 18.8217 15.3158 18.3528 15.0998V15.0998Z" fill="#CAA785"/>
<path d="M13.6001 24.4943L35.2001 24.4943" stroke="#CAA785" stroke-width="2" stroke-linecap="round" stroke-linejoin="round"/>
<path d="M7.30005 24.4943L9.10005 24.4943" stroke="#CAA785" stroke-width="2" stroke-linecap="round" stroke-linejoin="round"/>
<path d="M1 24.4943L2.8 24.4943" stroke="#CAA785" stroke-width="2" stroke-linecap="round" stroke-linejoin="round"/>
<path d="M27.1001 14.8719L35.2001 24.4946L27.1001 34.1174" stroke="#CAA785" stroke-width="2" stroke-linecap="round" stroke-linejoin="round"/>
</svg>
