<svg 
  xmlns="http://www.w3.org/2000/svg" 
  width="28" 
  height="28" 
  viewBox="0 0 54 55" 
  fill="none"
>
  <path 
    d="M26.6318 54.2418C41.3401 54.2418 53.2636 42.3183 53.2636 27.61C53.2636 12.9017 41.3401 0.978195 26.6318 0.978195C11.9235 0.978195 0 12.9017 0 27.61C0 42.3183 11.9235 54.2418 26.6318 54.2418Z" 
    fill="black" 
    fill-opacity="0.5"
  >
  </path>
  <path 
    d="M26.6318 53.7418C41.064 53.7418 52.7636 42.0422 52.7636 27.61C52.7636 13.1778 41.064 1.4782 26.6318 1.4782C12.1996 1.4782 0.5 13.1778 0.5 27.61C0.5 42.0422 12.1996 53.7418 26.6318 53.7418Z" 
    stroke="#CAA785"
  >
  </path>
  <path 
    d="M33 15H29.4545C27.8874 15 26.3844 15.658 25.2762 16.831C24.168 18.003 23.5455 19.592 23.5455 21.25V25H20V30H23.5455V40H28.2727V30H31.8182L33 25H28.2727V21.25C28.2727 20.918 28.3972 20.601 28.6189 20.366C28.8405 20.132 29.1411 20 29.4545 20H33V15Z" 
    stroke="white" 
    stroke-linecap="round" 
    stroke-linejoin="round"
  >
  </path>
</svg>
