<svg 
  xmlns="http://www.w3.org/2000/svg" 
  width="28" 
  height="28" 
  viewBox="0 0 54 54" 
  fill="none"
> 
  <path 
    d="M26.6318 53.7318C41.3401 53.7318 53.2636 41.8083 53.2636 27.1C53.2636 12.3917 41.3401 0.468201 26.6318 0.468201C11.9235 0.468201 0 12.3917 0 27.1C0 41.8083 11.9235 53.7318 26.6318 53.7318Z" 
    fill="black" 
    fill-opacity="0.5"
  >
  </path>
  <path 
    d="M26.6318 53.2318C41.064 53.2318 52.7636 41.5322 52.7636 27.1C52.7636 12.6678 41.064 0.968201 26.6318 0.968201C12.1996 0.968201 0.5 12.6678 0.5 27.1C0.5 41.5322 12.1996 53.2318 26.6318 53.2318Z" 
    stroke="#CAA785"
  >
  </path>
  <path 
    d="M32.922 14.5H20.974V15.5H32.922V14.5ZM39.396 20.974C39.396 17.399 36.4975 14.5 32.922 14.5V15.5C35.9452 15.5 38.396 17.951 38.396 20.974H39.396ZM39.396 32.922V20.974H38.396V32.922H39.396ZM32.922 39.396C36.4975 39.396 39.396 36.497 39.396 32.922H38.396C38.396 35.945 35.9452 38.396 32.922 38.396V39.396ZM20.974 39.396H32.922V38.396H20.974V39.396ZM14.5 32.922C14.5 36.497 17.3985 39.396 20.974 39.396V38.396C17.9508 38.396 15.5 35.945 15.5 32.922H14.5ZM14.5 20.974V32.922H15.5V20.974H14.5ZM20.974 14.5C17.3985 14.5 14.5 17.399 14.5 20.974H15.5C15.5 17.951 17.9508 15.5 20.974 15.5V14.5ZM33.5209 19.376C32.9686 19.376 32.5209 19.824 32.5209 20.376H33.5209V19.376ZM33.5342 19.376H33.5209V20.376H33.5342V19.376ZM34.5342 20.376C34.5342 19.824 34.0865 19.376 33.5342 19.376V20.376H34.5342ZM33.5342 21.376C34.0865 21.376 34.5342 20.928 34.5342 20.376H33.5342V21.376ZM33.5209 21.376H33.5342V20.376H33.5209V21.376ZM32.5209 20.376C32.5209 20.928 32.9686 21.376 33.5209 21.376V20.376H32.5209ZM31.6858 29.326C32.1973 28.34 32.3849 27.218 32.222 26.12L31.2328 26.267C31.3648 27.157 31.2128 28.066 30.7982 28.865L31.6858 29.326ZM29.3734 31.61C30.3652 31.111 31.1744 30.311 31.6858 29.326L30.7982 28.865C30.3837 29.664 29.7278 30.312 28.9238 30.717L29.3734 31.61ZM26.1612 32.106C27.2575 32.283 28.3815 32.109 29.3734 31.61L28.9238 30.717C28.1198 31.121 27.2087 31.262 26.3201 31.119L26.1612 32.106ZM23.2669 30.627C24.052 31.412 25.0649 31.93 26.1612 32.106L26.3201 31.119C25.4314 30.976 24.6105 30.557 23.9741 29.92L23.2669 30.627ZM21.7878 27.733C21.9642 28.829 22.4818 29.842 23.2669 30.627L23.9741 29.92C23.3376 29.284 22.918 28.463 22.7751 27.574L21.7878 27.733ZM22.2843 24.521C21.7851 25.513 21.6113 26.637 21.7878 27.733L22.7751 27.574C22.6321 26.685 22.7729 25.774 23.1776 24.97L22.2843 24.521ZM24.5685 22.208C23.5828 22.72 22.7836 23.529 22.2843 24.521L23.1776 24.97C23.5822 24.166 24.2301 23.51 25.029 23.096L24.5685 22.208ZM27.7743 21.672C26.6759 21.509 25.5541 21.697 24.5685 22.208L25.029 23.096C25.828 22.681 26.7373 22.529 27.6276 22.661L27.7743 21.672ZM30.7329 23.161C29.932 22.36 28.8947 21.838 27.7743 21.672L27.6276 22.661C28.5358 22.796 29.3766 23.219 30.0258 23.868L30.7329 23.161ZM32.222 26.12C32.0559 24.999 31.5338 23.962 30.7329 23.161L30.0258 23.868C30.675 24.518 31.0981 25.358 31.2328 26.267L32.222 26.12Z" 
    fill="white"
  >
  </path>
</svg>
