<svg width="19" height="19" viewBox="0 0 19 19" fill="none" xmlns="http://www.w3.org/2000/svg">
<path d="M16.6249 7.91699C16.6249 13.4587 9.49994 18.2087 9.49994 18.2087C9.49994 18.2087 2.37494 13.4587 2.37494 7.91699C2.37494 6.02733 3.12561 4.21505 4.4618 2.87886C5.798 1.54266 7.61027 0.791992 9.49994 0.791992C11.3896 0.791992 13.2019 1.54266 14.5381 2.87886C15.8743 4.21505 16.6249 6.02733 16.6249 7.91699Z" stroke="#CAA785" stroke-linecap="round" stroke-linejoin="round"/>
<path d="M9.49994 10.292C10.8116 10.292 11.8749 9.22867 11.8749 7.91699C11.8749 6.60532 10.8116 5.54199 9.49994 5.54199C8.18826 5.54199 7.12494 6.60532 7.12494 7.91699C7.12494 9.22867 8.18826 10.292 9.49994 10.292Z" stroke="#CAA785" stroke-linecap="round" stroke-linejoin="round"/>
</svg>
