<svg width="293" height="293" viewBox="0 0 293 293" fill="none" xmlns="http://www.w3.org/2000/svg">
<path d="M255.927 146.5C255.927 206.933 206.936 255.923 146.503 255.923C86.07 255.923 37.0793 206.933 37.0793 146.5C37.0793 86.0666 86.07 37.0759 146.503 37.0759C206.936 37.0759 255.927 86.0666 255.927 146.5ZM40.8046 146.5C40.8046 204.875 88.1274 252.198 146.503 252.198C204.879 252.198 252.201 204.875 252.201 146.5C252.201 88.124 204.879 40.8012 146.503 40.8012C88.1274 40.8012 40.8046 88.124 40.8046 146.5Z" fill="white"/>
<path d="M147.164 255.922C176.185 255.746 203.947 244.048 224.343 223.403C244.739 202.758 256.098 174.856 255.922 145.836C255.746 116.815 244.048 89.0535 223.403 68.6575C202.758 48.2615 174.856 36.9021 145.836 37.0783L145.858 40.8035C173.891 40.6334 200.843 51.606 220.785 71.3077C240.727 91.0093 252.026 117.826 252.197 145.858C252.367 173.891 241.394 200.843 221.692 220.785C201.991 240.727 175.174 252.026 147.142 252.196L147.164 255.922Z" fill="#CAA785"/>
<path d="M179.618 147.548C180.952 148.318 180.951 150.242 179.618 151.012L133.443 177.671C132.109 178.441 130.443 177.479 130.443 175.939L130.443 122.62C130.443 121.081 132.109 120.118 133.443 120.888L179.618 147.548Z" fill="white"/>
</svg>
