<svg 
  width="23" 
  height="23" 
  viewBox="0 0 23 23" 
  fill="none" 
  xmlns="http://www.w3.org/2000/svg"
>
  <mask 
    id="mask0_3259_57639" 
    style="mask-type:alpha" 
    maskUnits="userSpaceOnUse" 
    x="0" 
    y="0" 
    width="23" 
    height="23"
  >
    <g clip-path="url(#clip0_3259_57639)">
      <path 
        d="M18.1781 14.2474C17.7072 13.7571 17.1393 13.495 16.5373 13.495C15.9403 13.495 15.3675 13.7523 14.8772 14.2425L13.3432 15.7716C13.217 15.7037 13.0908 15.6406 12.9694 15.5775C12.7947 15.4901 12.6296 15.4076 12.4889 15.3202C11.052 14.4076 9.74617 13.2183 8.49376 11.6795C7.88697 10.9125 7.47921 10.2669 7.18309 9.61153C7.58115 9.24745 7.95008 8.86882 8.30929 8.50474C8.44522 8.36882 8.58113 8.22805 8.71706 8.09213C9.73646 7.07272 9.73646 5.75235 8.71706 4.73295L7.39183 3.40772C7.24135 3.25724 7.08601 3.1019 6.94038 2.94656C6.64912 2.6456 6.3433 2.33492 6.02777 2.04366C5.5569 1.57765 4.9938 1.33008 4.40158 1.33008C3.80935 1.33008 3.23654 1.57765 2.75111 2.04366C2.74626 2.04852 2.74626 2.04852 2.7414 2.05337L1.09094 3.7184C0.469586 4.33975 0.115222 5.09702 0.0375529 5.97565C-0.0789505 7.39311 0.33852 8.71348 0.658904 9.57755C1.4453 11.6989 2.62004 13.6649 4.37245 15.7716C6.49864 18.3104 9.05686 20.3153 11.9792 21.7279C13.0956 22.257 14.5859 22.8832 16.2509 22.99C16.3529 22.9949 16.4597 22.9997 16.5568 22.9997C17.6781 22.9997 18.6198 22.5968 19.3577 21.7958C19.3626 21.7861 19.3723 21.7813 19.3771 21.7716C19.6295 21.4657 19.9208 21.189 20.2266 20.8929C20.4354 20.6939 20.6489 20.4852 20.8577 20.2667C21.3383 19.7667 21.5907 19.1842 21.5907 18.5871C21.5907 17.9852 21.3334 17.4075 20.8431 16.9221L18.1781 14.2474ZM19.9159 19.359C19.9111 19.359 19.9111 19.3638 19.9159 19.359C19.7266 19.5629 19.5325 19.7473 19.3237 19.9512C19.0082 20.2522 18.6878 20.5677 18.3868 20.9221C17.8966 21.4463 17.3189 21.6939 16.5616 21.6939C16.4888 21.6939 16.4111 21.6939 16.3383 21.689C14.8966 21.5968 13.5568 21.0337 12.552 20.5531C9.80442 19.2231 7.39183 17.3347 5.387 14.9416C3.73168 12.9464 2.6249 11.1018 1.8919 9.12124C1.44045 7.91252 1.2754 6.97078 1.34822 6.08245C1.39676 5.51449 1.6152 5.04362 2.01811 4.64072L3.67343 2.9854C3.91129 2.7621 4.16371 2.64074 4.41128 2.64074C4.71711 2.64074 4.96468 2.8252 5.12001 2.98054C5.12487 2.9854 5.12972 2.99025 5.13458 2.99511C5.43069 3.2718 5.71224 3.55821 6.00835 3.86403C6.15884 4.01936 6.31417 4.1747 6.46951 4.33489L7.79474 5.66012C8.30929 6.17468 8.30929 6.6504 7.79474 7.16496C7.65396 7.30573 7.51804 7.4465 7.37727 7.58243C6.9695 7.9999 6.58116 8.38824 6.15884 8.76688C6.14913 8.77659 6.13942 8.78144 6.13456 8.79115C5.71709 9.20862 5.79476 9.61638 5.88214 9.89308C5.88699 9.90764 5.89185 9.9222 5.8967 9.93676C6.24136 10.7717 6.72679 11.5581 7.46464 12.495L7.4695 12.4998C8.80929 14.1503 10.2219 15.4367 11.7801 16.4221C11.9792 16.5483 12.183 16.6503 12.3772 16.7474C12.552 16.8347 12.717 16.9173 12.8578 17.0046C12.8772 17.0143 12.8966 17.0289 12.916 17.0386C13.0811 17.1211 13.2364 17.16 13.3966 17.16C13.7995 17.16 14.0519 16.9075 14.1345 16.825L15.7946 15.1649C15.9597 14.9998 16.2218 14.8008 16.5276 14.8008C16.8286 14.8008 17.0762 14.9901 17.2267 15.1551C17.2315 15.16 17.2315 15.16 17.2364 15.1649L19.9111 17.8396C20.4111 18.3347 20.4111 18.8444 19.9159 19.359Z" 
        fill="black"
      />
      <path 
        d="M12.43 5.47189C13.7019 5.68548 14.8572 6.28742 15.7795 7.20974C16.7018 8.13205 17.2989 9.28738 17.5174 10.5592C17.5708 10.8796 17.8475 11.1029 18.163 11.1029C18.2018 11.1029 18.2358 11.098 18.2746 11.0932C18.6339 11.0349 18.8717 10.6951 18.8135 10.3359C18.5513 8.79709 17.8232 7.3942 16.7115 6.28256C15.5999 5.17093 14.197 4.44278 12.6582 4.18065C12.299 4.1224 11.964 4.36026 11.9009 4.71462C11.8378 5.06899 12.0708 5.41364 12.43 5.47189Z" 
        fill="black"
      />
      <path 
        d="M22.9751 10.1458C22.5431 7.61184 21.3489 5.30604 19.514 3.47111C17.6791 1.63618 15.3733 0.442024 12.8393 0.00999088C12.4849 -0.0531151 12.15 0.1896 12.0869 0.543965C12.0286 0.903184 12.2665 1.23813 12.6257 1.30124C14.8878 1.68473 16.9509 2.75753 18.5917 4.39343C20.2324 6.03419 21.3004 8.09727 21.6839 10.3594C21.7373 10.6798 22.0139 10.9031 22.3295 10.9031C22.3683 10.9031 22.4023 10.8982 22.4411 10.8933C22.7955 10.84 23.0382 10.5002 22.9751 10.1458Z" 
        fill="black"
      />
    </g>
  </mask>
  <g mask="url(#mask0_3259_57639)">
    <rect 
      x="-9.06055" 
      y="-81.5449" 
      width="130.333" 
      height="120.576" 
      fill="white"
    />
  </g>
  <defs>
    <clipPath id="clip0_3259_57639">
      <rect 
        width="23" 
        height="23" 
        fill="white"
      />
    </clipPath>
  </defs>
</svg>