<svg width="19" height="19" viewBox="0 0 19 19" fill="none" xmlns="http://www.w3.org/2000/svg">
<path d="M17.4166 13.3948V15.7698C17.4175 15.9902 17.3723 16.2085 17.284 16.4105C17.1956 16.6125 17.0661 16.7938 16.9036 16.9429C16.7412 17.0919 16.5494 17.2054 16.3405 17.2761C16.1316 17.3467 15.9103 17.3729 15.6907 17.3531C13.2547 17.0884 10.9146 16.2559 8.85866 14.9227C6.94585 13.7072 5.32413 12.0855 4.10866 10.1727C2.77072 8.10737 1.9381 5.75596 1.67824 3.30892C1.65846 3.09 1.68447 2.86935 1.75464 2.66104C1.8248 2.45272 1.93757 2.2613 2.08576 2.09895C2.23396 1.93661 2.41434 1.8069 2.61541 1.71808C2.81648 1.62927 3.03384 1.58329 3.25366 1.58308H5.62866C6.01286 1.5793 6.38533 1.71536 6.67663 1.96588C6.96794 2.21641 7.15822 2.56431 7.21199 2.94475C7.31223 3.7048 7.49814 4.45108 7.76616 5.16933C7.87267 5.45269 7.89572 5.76064 7.83258 6.0567C7.76944 6.35275 7.62276 6.62451 7.40991 6.83975L6.40449 7.84517C7.53147 9.82714 9.17252 11.4682 11.1545 12.5952L12.1599 11.5898C12.3752 11.3769 12.6469 11.2302 12.943 11.1671C13.239 11.1039 13.547 11.127 13.8303 11.2335C14.5486 11.5015 15.2949 11.6874 16.0549 11.7877C16.4395 11.8419 16.7907 12.0356 17.0417 12.3319C17.2928 12.6282 17.4262 13.0065 17.4166 13.3948Z" stroke="#CAA785" stroke-linecap="round" stroke-linejoin="round"/>
</svg>
