<svg width="92" height="56" viewBox="0 0 92 56" fill="none" xmlns="http://www.w3.org/2000/svg">
<g opacity="0.8">
<path d="M34.6486 56H28.3063V55.2096L30.1095 54.9132V45.1317H23.5599V54.9132L25.3631 55.2096V56H19V55.2096L20.8032 54.9132V35.0868L19 34.7904V34H25.3631V34.7904L23.5599 35.0868V43.9461H30.1095V35.0868L28.3063 34.7904V34H34.6486V34.7904L32.8454 35.0868V54.9132L34.6486 55.2096V56Z" fill="#D2B58C"/>
<path d="M50.1789 56H44.0853V55.2096L45.7641 54.9132L43.8573 47.3383H39.1938L37.5356 54.3533L39.3803 55.2096V56H35.0484V55.2096L36.6237 54.3533L41.6395 34H43.0904L48.5829 54.9132L50.1789 55.2096V56ZM43.5464 46.1198L41.5151 38.1168L39.4839 46.1198H43.5464Z" fill="#D2B58C"/>
<path d="M56.5948 34V34.7575L54.7916 35.0868V54.9461L59.9525 54.8473L61.0303 51.0928H61.6935L61.4448 56H50.2317V55.2096L52.0349 54.9132V35.0868L50.2317 34.7575V34H56.5948Z" fill="#D2B58C"/>
<path d="M68.9012 34V34.7575L67.098 35.0868V54.9461L72.2589 54.8473L73.3367 51.0928H74L73.7513 56H62.5382V55.2096L64.3414 54.9132V35.0868L62.5382 34.7575V34H68.9012Z" fill="#D2B58C"/>
</g>
<g opacity="0.8">
<path d="M0.87627 21.1457C0.29209 20.5601 0 19.8119 0 18.901C0 17.6431 0.639816 16.8623 1.91945 16.5587C2.14199 18.5757 2.6149 19.9745 3.33817 20.7553C3.97799 21.4493 4.65257 21.7963 5.36194 21.7963C6.08521 21.7963 6.70416 21.4602 7.21879 20.7878C7.74734 20.0938 8.01161 18.9661 8.01161 17.4045C8.01161 16.2334 7.74038 15.3116 7.19793 14.6393C6.66939 13.9453 5.9948 13.338 5.17416 12.8175C4.35353 12.297 3.79717 11.9392 3.50508 11.744C3.21299 11.5271 2.83744 11.2126 2.37845 10.8006C1.93336 10.3885 1.59954 9.99811 1.377 9.62942C0.820633 8.63178 0.542453 7.48232 0.542453 6.18105C0.542453 4.14239 1.02927 2.60255 2.0029 1.56153C2.97654 0.520509 4.33267 0 6.0713 0C7.05884 0 8.20633 0.173503 9.51378 0.520509V5.33522H8.82529L7.99075 1.49646C7.29529 1.14946 6.58593 0.975954 5.86266 0.975954C5.1533 0.975954 4.53435 1.3338 4.0058 2.0495C3.47726 2.74352 3.21299 3.78453 3.21299 5.17256C3.21299 6.75578 3.67199 7.93777 4.58998 8.71853C5.04898 9.08722 5.59143 9.45592 6.21734 9.82461C6.84325 10.1933 7.29529 10.4752 7.57347 10.6704C7.85165 10.8439 8.22024 11.1367 8.67924 11.5488C9.13824 11.9392 9.47901 12.3296 9.70156 12.7199C9.9241 13.1103 10.1258 13.6308 10.3066 14.2815C10.4874 14.9104 10.5778 15.6044 10.5778 16.3635C10.5778 18.207 10.0771 19.7143 9.07565 20.8854C8.0742 22.0566 6.70416 22.6422 4.96553 22.6422C3.24081 22.6422 1.87772 22.1433 0.87627 21.1457Z" fill="#D2B58C"/>
<path d="M24.3732 14.6393C24.3732 16.2659 24.2272 17.578 23.9351 18.5757C23.643 19.5516 23.3161 20.2999 22.9545 20.8204C22.6068 21.3409 22.1269 21.7746 21.5149 22.1216C20.9029 22.4686 20.1866 22.6422 19.366 22.6422C17.3631 22.6422 15.8678 22.0457 14.8803 20.8529C13.9067 19.6384 13.4198 17.719 13.4198 15.0948V1.59406L11.6673 1.30127V0.520509H18.0098V1.30127L16.1947 1.59406V14.4441C16.1947 16.8732 16.4659 18.6624 17.0084 19.8119C17.5508 20.9397 18.448 21.5035 19.6998 21.5035C20.9516 21.5035 21.8765 20.9722 22.4746 19.9095C23.0727 18.8251 23.3718 16.9708 23.3718 14.3465V1.78925L21.8279 1.46393V0.520509H26.0632V1.529L24.3732 1.78925V14.6393Z" fill="#D2B58C"/>
<path d="M45.1626 22.2518H39.2999V21.471L40.8856 21.1782L40.3431 4.48939L36.1495 22.2518H35.0438L30.0365 4.65205L29.6401 20.6577L31.3927 21.471V22.2518H27.1156V21.471L28.8473 20.5276L29.2646 1.59406L27.4912 1.26874V0.520509H31.643L36.3582 17.6648L40.4266 0.520509H44.8705L44.8914 1.26874L43.0971 1.59406L43.5561 21.1782L45.1626 21.471V22.2518Z" fill="#D2B58C"/>
<path d="M64.4166 22.2518H58.5539V21.471L60.1395 21.1782L59.5971 4.48939L55.4035 22.2518H54.2977L49.2905 4.65205L48.8941 20.6577L50.6466 21.471V22.2518H46.3696V21.471L48.1013 20.5276L48.5185 1.59406L46.7451 1.26874V0.520509H50.897L55.6122 17.6648L59.6805 0.520509H64.1245L64.1453 1.26874L62.3511 1.59406L62.8101 21.1782L64.4166 21.471V22.2518Z" fill="#D2B58C"/>
<path d="M65.7279 22.2518V21.471L67.543 21.1782V1.59406L65.7279 1.30127V0.520509H76.3683V5.14003H75.7007L74.887 1.69165L70.3179 1.59406V10.3451H74.3654L75.0122 7.93777H75.5964V13.9887H74.9913L74.3654 11.5163H70.3179V21.2108L75.5129 21.1132L76.5978 17.4045H77.2654L77.0151 22.2518H65.7279Z" fill="#D2B58C"/>
<path d="M83.0704 10.8982H83.7798C86.0052 10.8982 87.1179 9.23904 87.1179 5.92079C87.1179 4.31589 86.9023 3.15559 86.4712 2.43989C86.04 1.7025 85.3584 1.3338 84.4265 1.3338C83.8284 1.3338 83.3764 1.37718 83.0704 1.46393V10.8982ZM82.7157 0.455445L85.0524 0.357849C88.3628 0.357849 90.018 2.21216 90.018 5.92079C90.018 7.56907 89.6424 8.91372 88.8913 9.95474C88.1402 10.9958 87.1736 11.5163 85.9913 11.5163H85.5114C87.0971 11.8416 88.182 12.5898 88.7662 13.761C89.3642 14.9321 89.6633 16.7105 89.6633 19.0962C89.6633 20.571 89.858 21.471 90.2475 21.7963C90.3866 21.9265 90.5882 21.9915 90.8525 21.9915C91.1307 21.9915 91.5062 21.818 91.9791 21.471L92 22.2518C91.2489 22.7506 90.4839 23 89.705 23C88.1472 23 87.2083 22.0891 86.8884 20.2673C86.7772 19.5083 86.7215 18.5648 86.7215 17.4371C86.7215 16.2876 86.6728 15.4092 86.5755 14.802C86.492 14.173 86.3599 13.6634 86.1791 13.273C85.7757 12.3187 85.0177 11.8416 83.9049 11.8416H83.0704V21.1782L84.656 21.471V22.2518H78.7725V21.471L80.3164 21.2108V1.529L78.5221 1.13861V0.325318C79.6905 0.41207 80.7406 0.455445 81.6725 0.455445H82.7157Z" fill="#D2B58C"/>
</g>
</svg>
