<svg width="133" height="46" viewBox="0 0 133 46" fill="none" xmlns="http://www.w3.org/2000/svg">
<path d="M29.9691 28.3793L18.4779 0.0056324H11.9241V0.41155L14.2237 3.19209L4.30159 28.3996L0 30.3615V30.7742H10.4023V30.3615L5.38375 28.3793L14.9812 3.98363L24.6259 28.3996L20.8045 30.3615V30.7742H34.0069V30.3615L29.9691 28.3793Z" fill="#E3DCD2"/>
<path d="M128.467 28.379L116.976 0.00537109H110.422V0.411289L112.728 3.19183L102.8 28.3993L98.498 30.3613V30.774H108.9V30.3613L103.889 28.379L113.486 3.98337L123.131 28.3993L119.303 30.3613V30.774H132.505V30.3613L128.467 28.379Z" fill="#E3DCD2"/>
<path d="M40.6895 30.368L44.5649 28.3993V2.40024L40.6895 0.411243V0.00532076H55.7924C57.9508 -0.0461834 60.1018 0.276556 62.1501 0.959231C63.7026 1.46394 65.078 2.40304 66.1135 3.66535C67.0166 4.82311 67.4942 6.25631 67.4662 7.72453C67.5104 8.83772 67.288 9.94535 66.8174 10.9551C66.3467 11.9648 65.6416 12.8474 64.7608 13.5292C62.7322 15.0375 60.3354 15.9723 57.8214 16.2353V16.3638C58.9042 16.6289 60.009 16.7942 61.122 16.8577L68.6295 28.5075L71.9774 30.4356V30.8416H64.1521L55.8194 16.4518C55.0468 16.5375 54.2701 16.5804 53.4928 16.5803H51.3285V15.6399H53.6551C59.1696 15.6399 61.9246 13.0601 61.9201 7.90043C61.9763 6.97112 61.8401 6.04021 61.52 5.16597C61.2 4.29173 60.703 3.49297 60.0601 2.81969C58.8021 1.55232 56.843 0.91864 54.1827 0.91864H49.597V28.3519L53.4657 30.3409V30.7468H40.6895V30.368Z" fill="#E3DCD2"/>
<path d="M79.2285 30.3681L83.0973 28.3994V2.40037L79.2285 0.411369V0.0054512H92.0048V0.411369L88.109 2.40037V28.3791L92.0048 30.3681V30.774H79.2285V30.3681Z" fill="#E3DCD2"/>
<path d="M14.8736 15.8023H15.1104L16.2602 18.3663L17.0515 20.132L16.2737 21.9519L15.1104 24.6648H14.8736L13.7306 22.1007L12.9393 20.335L13.7171 18.5151L14.8736 15.8023Z" fill="#E3DCD2"/>
<path d="M18.4649 20.1255V20.342L16.4561 21.3771L15.0696 22.0807L13.6493 21.3838L11.5255 20.342V20.1255L13.5343 19.0904L14.9141 18.38L16.3412 19.0836L18.4649 20.1255Z" fill="#E3DCD2"/>
<path d="M113.379 15.8022H113.615L114.765 18.3663L115.55 20.132L114.772 21.9519L113.615 24.6648H113.379L112.229 22.1007L111.438 20.335L112.215 18.5151L113.379 15.8022Z" fill="#E3DCD2"/>
<path d="M116.97 20.1256V20.3421L114.961 21.3772L113.574 22.0807L112.147 21.3839L110.023 20.3421V20.1256L112.039 19.0905L113.419 18.3801L114.846 19.0837L116.97 20.1256Z" fill="#E3DCD2"/>
<path d="M47.1886 37C47.5486 37 47.8619 37.0533 48.1286 37.16C48.3952 37.2667 48.6152 37.41 48.7886 37.59C48.9686 37.7633 49.1019 37.9667 49.1886 38.2C49.2819 38.4333 49.3286 38.68 49.3286 38.94C49.3286 39.6133 49.0419 40.0867 48.4686 40.36C48.8552 40.4933 49.1452 40.7033 49.3386 40.99C49.5319 41.2767 49.6286 41.63 49.6286 42.05C49.6286 42.6367 49.4519 43.11 49.0986 43.47C48.7452 43.8233 48.2086 44 47.4886 44H45.1686V37H47.1886ZM46.1286 40.79V43.22H47.4886C47.7219 43.22 47.9152 43.1833 48.0686 43.11C48.2286 43.0367 48.3552 42.9433 48.4486 42.83C48.5419 42.71 48.6052 42.5767 48.6386 42.43C48.6786 42.2833 48.6986 42.1367 48.6986 41.99C48.6986 41.8433 48.6786 41.6967 48.6386 41.55C48.6052 41.4033 48.5419 41.2767 48.4486 41.17C48.3552 41.0567 48.2286 40.9667 48.0686 40.9C47.9152 40.8267 47.7219 40.79 47.4886 40.79H46.1286ZM46.1286 37.78V40.01H47.1886C47.4219 40.01 47.6152 39.9767 47.7686 39.91C47.9286 39.8367 48.0552 39.7467 48.1486 39.64C48.2419 39.5333 48.3052 39.4133 48.3386 39.28C48.3786 39.1467 48.3986 39.0133 48.3986 38.88C48.3986 38.7467 48.3786 38.6167 48.3386 38.49C48.3052 38.3567 48.2419 38.2367 48.1486 38.13C48.0552 38.0233 47.9286 37.94 47.7686 37.88C47.6152 37.8133 47.4219 37.78 47.1886 37.78H46.1286ZM53.3544 40.39L54.7944 37H55.7844L53.8344 41.4V44H52.8744V41.4L50.9244 37H51.9144L53.3544 40.39ZM61.786 44H60.826V37H61.786V44ZM69.325 40.4V44H68.865L68.685 43.6C68.4583 43.76 68.205 43.8933 67.925 44C67.6516 44.1 67.3416 44.15 66.995 44.15C66.575 44.15 66.185 44.0733 65.825 43.92C65.4716 43.76 65.165 43.5267 64.905 43.22C64.645 42.9133 64.4416 42.5333 64.295 42.08C64.155 41.62 64.085 41.09 64.085 40.49C64.085 39.89 64.1583 39.3633 64.305 38.91C64.4516 38.45 64.655 38.07 64.915 37.77C65.175 37.4633 65.4783 37.2333 65.825 37.08C66.1783 36.9267 66.5616 36.85 66.975 36.85C67.5216 36.85 67.9816 36.9633 68.355 37.19C68.735 37.4167 69.0116 37.81 69.185 38.37L68.335 38.68C68.2283 38.3267 68.055 38.0633 67.815 37.89C67.5816 37.7167 67.3116 37.63 67.005 37.63C66.725 37.63 66.4683 37.69 66.235 37.81C66.0016 37.9233 65.7983 38.0967 65.625 38.33C65.4583 38.5633 65.325 38.86 65.225 39.22C65.1316 39.58 65.085 40.0033 65.085 40.49C65.085 40.9767 65.1316 41.4 65.225 41.76C65.325 42.12 65.4616 42.42 65.635 42.66C65.8083 42.9 66.015 43.08 66.255 43.2C66.495 43.3133 66.755 43.37 67.035 43.37C67.315 43.37 67.575 43.3267 67.815 43.24C68.0616 43.1467 68.2783 43.0333 68.465 42.9V41.18H67.275V40.4H68.465H69.325ZM72.6832 37.78V43.22H73.9132C74.1932 43.22 74.4532 43.1667 74.6932 43.06C74.9332 42.9467 75.1399 42.7767 75.3132 42.55C75.4866 42.3233 75.6199 42.04 75.7132 41.7C75.8132 41.3533 75.8632 40.95 75.8632 40.49C75.8632 40.03 75.8132 39.63 75.7132 39.29C75.6199 38.95 75.4866 38.67 75.3132 38.45C75.1466 38.2233 74.9466 38.0567 74.7132 37.95C74.4799 37.8367 74.2232 37.78 73.9432 37.78H72.6832ZM73.9732 37C74.3799 37 74.7599 37.0733 75.1132 37.22C75.4666 37.3667 75.7732 37.5867 76.0332 37.88C76.2932 38.1733 76.4966 38.5367 76.6432 38.97C76.7899 39.4033 76.8632 39.91 76.8632 40.49C76.8632 41.07 76.7899 41.58 76.6432 42.02C76.5032 42.4533 76.3032 42.8167 76.0432 43.11C75.7832 43.4033 75.4732 43.6267 75.1132 43.78C74.7599 43.9267 74.3732 44 73.9532 44H71.7232V37H73.9732ZM80.1192 44H79.1592V37H80.1192V44ZM85.3682 41.58C85.2882 41.4067 85.1982 41.29 85.0982 41.23C84.9982 41.17 84.8815 41.14 84.7482 41.14H84.7382H83.6782V44H82.7182V37H84.7382C85.1382 37 85.4882 37.0567 85.7882 37.17C86.0882 37.2767 86.3348 37.4267 86.5282 37.62C86.7282 37.8067 86.8782 38.0267 86.9782 38.28C87.0782 38.5333 87.1282 38.8067 87.1282 39.1C87.1282 39.5333 87.0248 39.91 86.8182 40.23C86.6182 40.55 86.3148 40.79 85.9082 40.95C86.0015 41.0167 86.0748 41.0933 86.1282 41.18C86.1882 41.26 86.2382 41.34 86.2782 41.42L87.5282 44H86.4782L85.3682 41.58ZM83.6782 37.78V40.36H84.7382C85.0248 40.36 85.2615 40.3233 85.4482 40.25C85.6348 40.17 85.7815 40.07 85.8882 39.95C86.0015 39.83 86.0815 39.6933 86.1282 39.54C86.1748 39.3867 86.1982 39.23 86.1982 39.07C86.1982 38.9167 86.1748 38.7633 86.1282 38.61C86.0815 38.4567 86.0015 38.32 85.8882 38.2C85.7815 38.0733 85.6348 37.9733 85.4482 37.9C85.2615 37.82 85.0248 37.78 84.7382 37.78H83.6782Z" fill="#E3DCD2"/>
</svg>
