<svg width="259" height="54" viewBox="0 0 259 54" fill="none" xmlns="http://www.w3.org/2000/svg">
<path d="M39.5787 40.5367L24.4028 3H15.7475V3.53701L18.7845 7.21549L5.68089 40.5635L0 43.1591V43.705H13.7377V43.1591L7.11004 40.5367L19.7849 8.26265L32.5222 40.5635L27.4755 43.1591V43.705H44.9112V43.1591L39.5787 40.5367Z" fill="#E3DCD2"/>
<path d="M169.659 40.5367L154.483 3H145.828V3.53701L148.873 7.21549L135.761 40.5635L130.08 43.1591V43.705H143.818V43.1591L137.199 40.5367L149.874 8.26265L162.611 40.5635L157.556 43.1591V43.705H174.991V43.1591L169.659 40.5367Z" fill="#E3DCD2"/>
<mask id="mask0_3387_57666" style="mask-type:luminance" maskUnits="userSpaceOnUse" x="0" y="0" width="259" height="54">
<path d="M259 0H0V54H259V0Z" fill="white"/>
</mask>
<g mask="url(#mask0_3387_57666)">
<path d="M53.7363 43.1682L58.8545 40.5637V6.16854L53.7363 3.53721V3.0002H73.682C76.5325 2.93207 79.3732 3.35903 82.0783 4.26217C84.1286 4.92986 85.945 6.17224 87.3125 7.84221C88.5052 9.37385 89.136 11.2699 89.099 13.2123C89.1574 14.6849 88.8636 16.1503 88.2421 17.4861C87.6206 18.8219 86.6894 19.9895 85.5261 20.8915C82.8471 22.887 79.6817 24.1235 76.3617 24.4715V24.6415C77.7917 24.9922 79.2507 25.2109 80.7205 25.2949L90.6353 40.7069L95.0568 43.2577V43.7947H84.7222L73.7177 24.7579C72.6974 24.8713 71.6716 24.9281 70.645 24.9279H67.7867V23.6839H70.8594C78.1421 23.6839 81.7805 20.2709 81.7746 13.445C81.8487 12.2155 81.6688 10.984 81.2462 9.82743C80.8235 8.67087 80.1672 7.61416 79.3182 6.72344C77.6568 5.04679 75.0695 4.20847 71.5561 4.20847H65.5001V40.5011L70.6093 43.1324V43.6694H53.7363V43.1682Z" fill="#E3DCD2"/>
<path d="M104.633 43.168L109.742 40.5635V6.16833L104.633 3.53701V3H121.506V3.53701L116.361 6.16833V40.5367L121.506 43.168V43.705H104.633V43.168Z" fill="#E3DCD2"/>
<path d="M19.642 23.8984H19.9546L21.4731 27.2905L22.5182 29.6265L21.491 32.0341L19.9546 35.6231H19.642L18.1325 32.231L17.0874 29.895L18.1146 27.4874L19.642 23.8984Z" fill="#E3DCD2"/>
<path d="M24.3852 29.6177V29.9041L21.7323 31.2735L19.9012 32.2043L18.0254 31.2824L15.2207 29.9041V29.6177L17.8736 28.2484L19.6957 27.3086L21.5804 28.2394L24.3852 29.6177Z" fill="#E3DCD2"/>
<path d="M149.732 23.8984H150.044L151.563 27.2905L152.599 29.6265L151.572 32.0341L150.044 35.6231H149.732L148.213 32.231L147.168 29.895L148.195 27.4874L149.732 23.8984Z" fill="#E3DCD2"/>
<path d="M154.474 29.6177V29.9041L151.821 31.2735L149.99 32.2043L148.105 31.2824L145.301 29.9041V29.6177L147.963 28.2484L149.785 27.3086L151.669 28.2394L154.474 29.6177Z" fill="#E3DCD2"/>
<path d="M186.89 44.189C186.722 44.189 186.659 44.063 186.659 43.727V32.114C186.659 29.972 186.428 29.762 185.168 29.804V29.216C186.05 28.922 187.268 28.187 188.066 27.452L188.78 27.662V35.432C189.704 34.235 191.006 33.227 192.476 33.227C194.891 33.227 196.256 35.075 196.256 37.763C196.256 41.564 193.421 44.21 190.313 44.21C189.2 44.21 188.465 43.874 187.919 43.349C187.31 44.021 187.058 44.189 186.89 44.189ZM191.069 34.76C190.04 34.76 189.326 35.243 188.78 35.831V41.522C189.221 42.53 189.935 43.097 191.237 43.097C193.043 43.097 193.904 41.354 193.904 38.687C193.904 36.335 193.043 34.76 191.069 34.76ZM199.981 49.334C199.204 49.334 198.805 48.809 198.805 48.221C198.805 47.402 199.414 46.919 200.359 46.331C201.283 45.764 201.913 45.239 202.438 44.315C202.438 44.315 202.501 44.21 202.543 44.084C202.375 44.084 202.207 44.042 202.06 43.664L199.162 36.293C198.406 34.382 198.112 34.235 197.188 34.235V33.437C197.734 33.437 198.994 33.458 199.729 33.458C200.506 33.458 201.766 33.437 202.711 33.437V34.235C201.388 34.193 201.01 34.382 201.01 34.886C201.01 35.117 201.073 35.39 201.241 35.831L203.446 41.606L205.441 36.608C205.672 36.02 205.798 35.579 205.798 35.222C205.798 34.487 205.315 34.193 204.097 34.235V33.437C204.979 33.437 206.113 33.458 206.638 33.458C207.142 33.458 208.045 33.437 208.675 33.437V34.235C207.73 34.193 207.415 34.571 206.47 36.776L203.131 44.651C202.606 45.995 202.228 47.066 201.787 47.801C201.157 48.935 200.716 49.334 199.981 49.334ZM214.013 44V43.181C216.029 43.202 216.113 43.16 216.113 40.997V32.45C216.113 30.287 216.029 30.245 214.013 30.266V29.447C214.58 29.447 216.953 29.51 217.268 29.51C217.541 29.51 219.872 29.447 220.439 29.447V30.266C218.423 30.245 218.339 30.287 218.339 32.45V40.997C218.339 43.16 218.423 43.202 220.439 43.181V44C219.872 44 217.541 43.937 217.247 43.937C216.953 43.937 214.58 44 214.013 44ZM224.856 49.754C222.21 49.754 221.097 48.977 221.097 47.612C221.097 46.352 222.315 45.365 224.121 44.735C222.588 44.609 221.874 43.853 221.874 42.929C221.874 41.837 223.071 40.997 224.268 40.493C222.714 40.031 221.895 38.813 221.895 37.259C221.895 35.012 223.827 33.227 226.473 33.227C227.019 33.227 227.565 33.29 228.048 33.437H231.744C231.849 33.437 231.891 33.437 231.891 33.479L231.492 34.676H229.434C230.043 35.222 230.4 35.999 230.4 36.986C230.4 38.855 229.245 40.913 225.759 40.913C223.953 40.913 223.281 41.417 223.281 41.921C223.281 42.446 223.617 42.908 225.36 42.908H228.342C230.925 42.908 231.681 43.853 231.681 45.092C231.681 47.444 228.384 49.775 224.856 49.754ZM226.179 40.178C227.502 40.178 228.216 39.002 228.216 37.406C228.216 35.39 227.502 34.151 226.032 34.151C224.646 34.151 224.121 35.243 224.121 36.818C224.121 38.75 224.793 40.178 226.179 40.178ZM222.798 46.625C222.798 47.486 223.743 48.137 226.011 48.137C228.867 48.137 230.337 46.982 230.337 45.932C230.337 45.071 229.644 44.756 227.502 44.756H224.709C224.247 44.924 223.953 45.092 223.701 45.26C223.113 45.722 222.798 46.184 222.798 46.625ZM236.378 44.21C233.942 44.21 232.472 42.278 232.472 39.611C232.472 35.852 235.265 33.227 238.121 33.227C238.877 33.227 239.465 33.374 239.948 33.626V32.114C239.948 29.993 239.738 29.762 238.478 29.804V29.216C239.36 28.922 240.557 28.187 241.376 27.452L242.069 27.662V42.488C242.069 42.95 242.132 43.118 242.426 43.139L243.56 43.202V43.937C242.867 43.937 240.284 44.21 240.179 44.21C240.011 44.21 239.885 44.063 239.906 43.895L239.948 41.963C239.066 43.328 237.89 44.21 236.378 44.21ZM234.824 38.687C234.824 41.039 235.895 42.593 237.785 42.593C238.835 42.593 239.423 42.11 239.948 41.564V36.02C239.507 34.886 238.835 34.34 237.512 34.34C235.664 34.34 234.824 35.831 234.824 38.687ZM247.067 31.757C246.164 31.757 245.513 31.148 245.513 30.245C245.513 29.342 246.185 28.67 247.088 28.67C247.991 28.67 248.642 29.342 248.642 30.245C248.642 31.127 247.97 31.757 247.067 31.757ZM244.694 44V43.181C245.975 43.223 246.08 43.055 246.08 42.068V37.49C246.08 35.579 245.891 35.327 244.82 35.348V34.781C245.681 34.508 246.647 33.899 247.424 33.206L248.243 33.416V42.131C248.243 43.16 248.432 43.223 249.734 43.181V44C249.125 44 247.256 43.958 246.941 43.958C246.626 43.958 245.303 44 244.694 44ZM250.908 44V43.181C252.084 43.181 252.315 42.992 252.315 41.984V36.587C252.315 36.041 251.685 35.411 250.95 34.886C250.887 34.844 250.908 34.781 250.95 34.76C251.265 34.571 252.609 33.605 252.882 33.353C252.945 33.311 252.945 33.311 253.029 33.374C253.659 33.878 254.352 34.781 254.415 35.873V35.999C254.52 34.865 254.982 34.214 255.444 33.794C255.927 33.374 256.494 33.164 257.397 33.164C258.048 33.164 258.51 33.29 258.573 33.521V33.731C258.531 34.067 258.363 34.508 258.111 34.886C257.859 35.264 257.502 35.432 257.019 35.432C256.662 35.432 256.179 35.411 255.759 35.411C255.318 35.411 254.982 35.495 254.772 35.768C254.541 36.02 254.457 36.293 254.457 37.007V43.181H256.914V44C256.263 44 253.512 43.958 253.176 43.958C252.84 43.958 251.517 44 250.908 44Z" fill="#E3DCD2"/>
</g>
</svg>
