<svg width="87" height="55" viewBox="0 0 87 55" fill="none" xmlns="http://www.w3.org/2000/svg">
<g opacity="0.8">
<path d="M31.2177 55H24.6447V54.2096L26.5135 53.9132V44.1317H19.7257V53.9132L21.5945 54.2096V55H15V54.2096L16.8688 53.9132V34.0868L15 33.7904V33H21.5945V33.7904L19.7257 34.0868V42.9461H26.5135V34.0868L24.6447 33.7904V33H31.2177V33.7904L29.3489 34.0868V53.9132L31.2177 54.2096V55Z" fill="#D2B58C"/>
<path d="M47.3127 55H40.9974V54.2096L42.7374 53.9132L40.7612 46.3383H35.9281L34.2097 53.3533L36.1214 54.2096V55H31.632V54.2096L33.2645 53.3533L38.4628 33H39.9664L45.6587 53.9132L47.3127 54.2096V55ZM40.439 45.1198L38.3339 37.1168L36.2288 45.1198H40.439Z" fill="#D2B58C"/>
<path d="M53.9619 33V33.7575L52.0931 34.0868V53.9461L57.4417 53.8473L58.5587 50.0928H59.246L58.9883 55H47.3674V54.2096L49.2362 53.9132V34.0868L47.3674 33.7575V33H53.9619Z" fill="#D2B58C"/>
<path d="M66.7158 33V33.7575L64.847 34.0868V53.9461L70.1956 53.8473L71.3126 50.0928H72L71.7422 55H60.1214V54.2096L61.9901 53.9132V34.0868L60.1214 33.7575V33H66.7158Z" fill="#D2B58C"/>
<path d="M11.8192 5.46055C11.8192 6.63893 11.6417 7.64897 11.2868 8.49067C10.9319 9.33238 10.4492 9.97418 9.8387 10.4161C8.71711 11.2157 7.36128 11.6155 5.77118 11.6155C5.50144 11.6155 5.12521 11.5945 4.6425 11.5524V20.2324L6.26099 20.5165V21.274H0.234255V20.5165L1.83145 20.2324V1.16786L0 0.852224V0.126255H4.23788L6.7295 0.0315632C8.48996 0.0526055 9.77481 0.515543 10.5841 1.42037C11.4075 2.3252 11.8192 3.67193 11.8192 5.46055ZM5.23879 10.637C6.40296 10.637 7.29739 10.1741 7.92207 9.24821C8.54675 8.30129 8.85909 7.04926 8.85909 5.49211C8.85909 3.93496 8.63903 2.79866 8.19891 2.08321C7.7588 1.34672 7.06313 0.978479 6.11192 0.978479C5.44465 0.978479 4.95484 1.02056 4.6425 1.10473V10.5739C4.89805 10.616 5.09681 10.637 5.23879 10.637Z" fill="#D2B58C"/>
<path d="M17.5578 10.2583H18.2818C20.5534 10.2583 21.6892 8.64849 21.6892 5.42898C21.6892 3.87183 21.4691 2.74605 21.029 2.05165C20.5889 1.3362 19.8932 0.978479 18.942 0.978479C18.3315 0.978479 17.8701 1.02056 17.5578 1.10473V10.2583ZM17.1958 0.126255L19.5809 0.0315632C22.9598 0.0315632 24.6493 1.8307 24.6493 5.42898C24.6493 7.02822 24.266 8.33286 23.4993 9.3429C22.7327 10.3529 21.746 10.858 20.5392 10.858H20.0494C21.6679 11.1736 22.7753 11.8996 23.3716 13.0359C23.982 14.1722 24.2873 15.8977 24.2873 18.2123C24.2873 19.6432 24.486 20.5165 24.8836 20.8321C25.0255 20.9584 25.2314 21.0215 25.5012 21.0215C25.7851 21.0215 26.1684 20.8532 26.6511 20.5165L26.6724 21.274C25.9058 21.758 25.1249 22 24.3299 22C22.7398 22 21.7815 21.1162 21.4549 19.3486C21.3414 18.6122 21.2846 17.6968 21.2846 16.6026C21.2846 15.4873 21.2349 14.6351 21.1355 14.0459C21.0503 13.4357 20.9154 12.9412 20.7309 12.5624C20.3192 11.6365 19.5454 11.1736 18.4096 11.1736H17.5578V20.2324L19.1763 20.5165V21.274H13.1708V20.5165L14.7467 20.264V1.16786L12.9153 0.789095V0C14.1079 0.0841704 15.1797 0.126255 16.131 0.126255H17.1958Z" fill="#D2B58C"/>
<path d="M33.7207 21.274H27.1829V20.5165L29.0356 20.2324V1.23099L27.1829 0.946914V0.189383H33.7207V0.946914L31.868 1.23099V20.2324L33.7207 20.5165V21.274Z" fill="#D2B58C"/>
<path d="M33.8069 0.189383H40.0679V0.946914L38.3855 1.23099L42.6021 16.9498L46.6483 1.76758L44.7743 0.946914V0.189383H49.2251V0.946914L47.6066 1.79914L42.3252 21.4634H41.0475L35.4467 1.23099L33.8069 0.946914V0.189383Z" fill="#D2B58C"/>
<path d="M62.7535 21.274H56.4925V20.5165L58.2174 20.2324L56.2582 12.9727H51.4667L49.763 19.6958L51.6583 20.5165V21.274H47.2075V20.5165L48.826 19.6958L53.9796 0.189383H55.4703L61.1137 20.2324L62.7535 20.5165V21.274ZM55.9388 11.8049L53.8518 4.13486L51.7648 11.8049H55.9388Z" fill="#D2B58C"/>
<path d="M74.2077 4.95552H73.5688L72.5679 1.32568L69.1392 1.26255V20.2324L71.1198 20.5165V21.274H64.3264V20.5165L66.3069 20.2324V1.26255L62.8783 1.32568L61.8773 4.95552H61.2598V0.189383L67.7337 0.126255L74.2077 0.189383V4.95552Z" fill="#D2B58C"/>
<path d="M75.2234 21.274V20.5165L77.0761 20.2324V1.23099L75.2234 0.946914V0.189383H86.0843V4.67145H85.4028L84.5723 1.32568L79.9085 1.23099V9.72167H84.0399L84.7 7.38594H85.2963V13.2568H84.6787L84.0399 10.858H79.9085V20.264L85.2111 20.1693L86.3185 16.571H87L86.7444 21.274H75.2234Z" fill="#D2B58C"/>
</g>
</svg>
