<svg width="261" height="95" viewBox="0 0 261 95" fill="none" xmlns="http://www.w3.org/2000/svg">
<path d="M31.564 12.438H30.0066L27.5666 3.82133L19.2084 3.67147V48.7032L24.0364 49.3775V51.1758H7.47568V49.3775L12.3037 48.7032V3.67147L3.9455 3.82133L1.50552 12.438H0V1.12392L15.782 0.974064L31.564 1.12392V12.438Z" fill="#D2B58C"/>
<path d="M73.2355 51.1758H57.3497V49.3775L61.8662 48.7032V26.4496H45.4613V48.7032L49.9778 49.3775V51.1758H34.0401V49.3775L38.5566 48.7032V3.59654L34.0401 2.92219V1.12392H49.9778V2.92219L45.4613 3.59654V23.7522H61.8662V3.59654L57.3497 2.92219V1.12392H73.2355V2.92219L68.7189 3.59654V48.7032L73.2355 49.3775V51.1758Z" fill="#D2B58C"/>
<path d="M76.6769 51.1758V49.3775L81.1934 48.7032V3.59654L76.6769 2.92219V1.12392H103.153V11.7637H101.492L99.4673 3.82133L88.098 3.59654V23.7522H98.1694L99.7788 18.2075H101.232V32.1441H99.7269L98.1694 26.4496H88.098V48.7781L101.025 48.5533L103.724 40.0115H105.386L104.763 51.1758H76.6769Z" fill="#D2B58C"/>
<path d="M136.245 1.12392C144.516 1.12392 148.652 5.04515 148.652 12.8876C148.652 16.0845 147.943 18.757 146.524 20.9049C145.105 23.0029 143.045 24.2767 140.346 24.7262C143.841 25.6753 146.385 27.1489 147.977 29.147C149.569 31.1451 150.365 33.9673 150.365 37.6138C150.365 42.2094 149.016 45.6311 146.316 47.879C143.617 50.0769 140.104 51.1758 135.777 51.1758H121.709V49.3775L125.498 48.6282V3.59654L121.086 2.84726V1.12392H136.245ZM133.857 26.2248L132.507 26.2997V49.0778C133.164 49.3276 133.926 49.4525 134.791 49.4525C137.179 49.4525 139.186 48.5034 140.813 46.6052C142.44 44.6571 143.253 41.4601 143.253 37.0144C143.253 31.3698 141.557 27.9981 138.165 26.8991C136.781 26.4496 135.345 26.2248 133.857 26.2248ZM132.507 3.14697V24.1268H133.753C136.175 24.1268 138.062 23.1777 139.411 21.2795C140.761 19.3814 141.436 16.634 141.436 13.0375C141.436 9.39097 140.917 6.84342 139.879 5.39481C138.84 3.89625 137.179 3.14697 134.895 3.14697H132.507Z" fill="#D2B58C"/>
<path d="M169.878 1.12392V2.84726L165.361 3.59654V48.7781L178.288 48.5533L180.988 40.0115H182.649L182.026 51.1758H153.94V49.3775L158.457 48.7032V3.59654L153.94 2.84726V1.12392H169.878Z" fill="#D2B58C"/>
<path d="M220.854 26C220.854 33.4928 219.227 39.7118 215.974 44.6571C212.755 49.5524 208.394 52 202.891 52C197.423 52 193.062 49.5524 189.809 44.6571C186.59 39.7118 184.981 33.4928 184.981 26C184.981 18.5072 186.59 12.3132 189.809 7.41787C193.062 2.47262 197.423 0 202.891 0C208.394 0 212.755 2.47262 215.974 7.41787C219.227 12.3132 220.854 18.5072 220.854 26ZM202.995 49.6772C209.64 49.6772 212.962 41.7848 212.962 26C212.962 18.4073 212.201 12.5629 210.678 8.46686C209.19 4.3708 206.612 2.32277 202.943 2.32277C199.274 2.32277 196.661 4.3708 195.104 8.46686C193.581 12.5629 192.82 18.4073 192.82 26C192.82 41.7848 196.211 49.6772 202.995 49.6772Z" fill="#D2B58C"/>
<path d="M245.893 0.599426L257.314 1.27378L257.626 14.9107H255.757L253.992 5.0951C251.603 3.94621 249.302 3.37176 247.087 3.37176C242.968 3.37176 239.629 5.34486 237.067 9.29107C234.506 13.1873 233.226 18.9817 233.226 26.6744C233.226 34.317 234.472 39.9366 236.964 43.5331C239.455 47.1297 242.674 48.928 246.62 48.928C248.039 48.928 249.579 48.7781 251.24 48.4784V31.7695L246.931 31.0951V29.2968H261V31.0951L257.885 31.7695V49.6023C253.559 50.951 249.769 51.6254 246.516 51.6254C243.297 51.6254 240.546 51.2507 238.261 50.5014C235.977 49.7022 233.831 48.4284 231.824 46.6801C229.817 44.9318 228.242 42.4092 227.1 39.1124C225.992 35.8156 225.439 31.8694 225.439 27.2738C225.439 22.6782 226.01 18.6321 227.152 15.1354C228.328 11.5889 229.903 8.79155 231.876 6.74352C235.821 2.64746 240.494 0.599426 245.893 0.599426Z" fill="#D2B58C"/>
<path d="M9.5415 80.4722H4.41309V78.4023H9.5415C10.5347 78.4023 11.3389 78.2441 11.9541 77.9277C12.5693 77.6113 13.0176 77.1719 13.2988 76.6094C13.5889 76.0469 13.7339 75.4053 13.7339 74.6846C13.7339 74.0254 13.5889 73.4058 13.2988 72.8257C13.0176 72.2456 12.5693 71.7798 11.9541 71.4282C11.3389 71.0679 10.5347 70.8877 9.5415 70.8877H5.00635V88H2.46191V68.8047H9.5415C10.9917 68.8047 12.2178 69.0552 13.2197 69.5562C14.2217 70.0571 14.9819 70.7515 15.5005 71.6392C16.019 72.5181 16.2783 73.5244 16.2783 74.6582C16.2783 75.8887 16.019 76.939 15.5005 77.8091C14.9819 78.6792 14.2217 79.3428 13.2197 79.7998C12.2178 80.248 10.9917 80.4722 9.5415 80.4722ZM21.7759 67.75V88H19.3237V67.75H21.7759ZM34.1025 85.561V78.2178C34.1025 77.6553 33.9883 77.1675 33.7598 76.7544C33.54 76.3325 33.2061 76.0073 32.7578 75.7788C32.3096 75.5503 31.7559 75.436 31.0967 75.436C30.4814 75.436 29.9409 75.5415 29.4751 75.7524C29.0181 75.9634 28.6577 76.2402 28.394 76.583C28.1392 76.9258 28.0117 77.2949 28.0117 77.6904H25.5728C25.5728 77.1807 25.7046 76.6753 25.9683 76.1743C26.2319 75.6733 26.6099 75.2207 27.1021 74.8164C27.603 74.4033 28.2007 74.0781 28.895 73.8408C29.5981 73.5947 30.3804 73.4717 31.2417 73.4717C32.2788 73.4717 33.1929 73.6475 33.9839 73.999C34.7837 74.3506 35.4077 74.8823 35.856 75.5942C36.313 76.2974 36.5415 77.1807 36.5415 78.2441V84.8887C36.5415 85.3633 36.5811 85.8687 36.6602 86.4048C36.748 86.9409 36.8755 87.4023 37.0425 87.7891V88H34.498C34.375 87.7188 34.2783 87.3452 34.208 86.8794C34.1377 86.4048 34.1025 85.9653 34.1025 85.561ZM34.5244 79.3516L34.5508 81.0654H32.0854C31.3911 81.0654 30.7715 81.1226 30.2266 81.2368C29.6816 81.3423 29.2246 81.5049 28.8555 81.7246C28.4863 81.9443 28.2051 82.2212 28.0117 82.5552C27.8184 82.8804 27.7217 83.2627 27.7217 83.7021C27.7217 84.1504 27.8228 84.5591 28.0249 84.9282C28.2271 85.2974 28.5303 85.5918 28.9346 85.8115C29.3477 86.0225 29.853 86.1279 30.4507 86.1279C31.1978 86.1279 31.8569 85.9697 32.4282 85.6533C32.9995 85.3369 33.4521 84.9502 33.7861 84.4932C34.1289 84.0361 34.3135 83.5923 34.3398 83.1616L35.3813 84.335C35.3198 84.7041 35.1528 85.1128 34.8804 85.561C34.6079 86.0093 34.2432 86.4399 33.7861 86.853C33.3379 87.2573 32.8018 87.5957 32.1777 87.8682C31.5625 88.1318 30.8682 88.2637 30.0947 88.2637C29.1279 88.2637 28.2798 88.0747 27.5503 87.6968C26.8296 87.3188 26.2671 86.8135 25.8628 86.1807C25.4673 85.5391 25.2695 84.8228 25.2695 84.0317C25.2695 83.2671 25.4189 82.5947 25.7178 82.0146C26.0166 81.4258 26.4473 80.938 27.0098 80.5513C27.5723 80.1558 28.249 79.8569 29.04 79.6548C29.8311 79.4526 30.7144 79.3516 31.6899 79.3516H34.5244ZM46.0864 86.2598C46.6665 86.2598 47.2026 86.1411 47.6948 85.9038C48.187 85.6665 48.5913 85.3413 48.9077 84.9282C49.2241 84.5063 49.4043 84.0273 49.4482 83.4912H51.7686C51.7246 84.335 51.439 85.1216 50.9116 85.8511C50.3931 86.5718 49.7119 87.1562 48.8682 87.6045C48.0244 88.0439 47.0972 88.2637 46.0864 88.2637C45.0142 88.2637 44.0781 88.0747 43.2783 87.6968C42.4873 87.3188 41.8281 86.8003 41.3008 86.1411C40.7822 85.4819 40.3911 84.7261 40.1274 83.8735C39.8726 83.0122 39.7451 82.1025 39.7451 81.1445V80.5908C39.7451 79.6328 39.8726 78.7275 40.1274 77.875C40.3911 77.0137 40.7822 76.2534 41.3008 75.5942C41.8281 74.9351 42.4873 74.4165 43.2783 74.0386C44.0781 73.6606 45.0142 73.4717 46.0864 73.4717C47.2026 73.4717 48.1782 73.7002 49.0132 74.1572C49.8481 74.6055 50.5029 75.2207 50.9775 76.0029C51.4609 76.7764 51.7246 77.6553 51.7686 78.6396H49.4482C49.4043 78.0508 49.2373 77.519 48.9473 77.0444C48.666 76.5698 48.2793 76.1919 47.7871 75.9106C47.3037 75.6206 46.7368 75.4756 46.0864 75.4756C45.3394 75.4756 44.7109 75.625 44.2012 75.9238C43.7002 76.2139 43.3003 76.6094 43.0015 77.1104C42.7114 77.6025 42.5005 78.1519 42.3687 78.7583C42.2456 79.356 42.1841 79.9668 42.1841 80.5908V81.1445C42.1841 81.7686 42.2456 82.3838 42.3687 82.9902C42.4917 83.5967 42.6982 84.146 42.9883 84.6382C43.2871 85.1304 43.687 85.5259 44.188 85.8247C44.6978 86.1147 45.3306 86.2598 46.0864 86.2598ZM60.4302 88.2637C59.437 88.2637 58.5361 88.0967 57.7275 87.7627C56.9277 87.4199 56.2378 86.9409 55.6577 86.3257C55.0864 85.7104 54.647 84.981 54.3394 84.1372C54.0317 83.2935 53.8779 82.3706 53.8779 81.3687V80.8149C53.8779 79.6548 54.0493 78.6221 54.3921 77.7168C54.7349 76.8027 55.2007 76.0293 55.7896 75.3965C56.3784 74.7637 57.0464 74.2847 57.7935 73.9595C58.5405 73.6343 59.314 73.4717 60.1138 73.4717C61.1333 73.4717 62.0122 73.6475 62.7505 73.999C63.4976 74.3506 64.1084 74.8428 64.583 75.4756C65.0576 76.0996 65.4092 76.8379 65.6377 77.6904C65.8662 78.5342 65.9805 79.457 65.9805 80.459V81.5532H55.3281V79.5625H63.5415V79.3779C63.5063 78.7451 63.3745 78.1299 63.146 77.5322C62.9263 76.9346 62.5747 76.4424 62.0913 76.0557C61.6079 75.6689 60.9487 75.4756 60.1138 75.4756C59.5601 75.4756 59.0503 75.5942 58.5845 75.8315C58.1187 76.0601 57.7188 76.4028 57.3848 76.8599C57.0508 77.3169 56.7915 77.875 56.6069 78.5342C56.4224 79.1934 56.3301 79.9536 56.3301 80.8149V81.3687C56.3301 82.0454 56.4224 82.6826 56.6069 83.2803C56.8003 83.8691 57.0771 84.3877 57.4375 84.8359C57.8066 85.2842 58.2505 85.6357 58.769 85.8906C59.2964 86.1455 59.894 86.2729 60.562 86.2729C61.4233 86.2729 62.1528 86.0972 62.7505 85.7456C63.3481 85.394 63.8711 84.9238 64.3193 84.335L65.7959 85.5083C65.4883 85.9741 65.0972 86.418 64.6226 86.8398C64.1479 87.2617 63.5635 87.6045 62.8691 87.8682C62.1836 88.1318 61.3706 88.2637 60.4302 88.2637ZM79.1641 88H76.7251V72.2324C76.7251 71.2041 76.9097 70.3384 77.2788 69.6353C77.6567 68.9233 78.1973 68.3872 78.9004 68.0269C79.6035 67.6577 80.4385 67.4731 81.4053 67.4731C81.6865 67.4731 81.9678 67.4907 82.249 67.5259C82.5391 67.561 82.8203 67.6138 83.0928 67.6841L82.9609 69.6748C82.7764 69.6309 82.5654 69.6001 82.3281 69.5825C82.0996 69.5649 81.8711 69.5562 81.6426 69.5562C81.124 69.5562 80.6758 69.6616 80.2979 69.8726C79.9287 70.0747 79.6475 70.3735 79.4541 70.769C79.2607 71.1646 79.1641 71.6523 79.1641 72.2324V88ZM82.1963 73.7354V75.6074H74.4707V73.7354H82.1963ZM84.2661 81.0259V80.7227C84.2661 79.6943 84.4155 78.7407 84.7144 77.8618C85.0132 76.9741 85.4438 76.2051 86.0063 75.5547C86.5688 74.8955 87.25 74.3857 88.0498 74.0254C88.8496 73.6562 89.7461 73.4717 90.7393 73.4717C91.7412 73.4717 92.6421 73.6562 93.4419 74.0254C94.2505 74.3857 94.936 74.8955 95.4985 75.5547C96.0698 76.2051 96.5049 76.9741 96.8037 77.8618C97.1025 78.7407 97.252 79.6943 97.252 80.7227V81.0259C97.252 82.0542 97.1025 83.0078 96.8037 83.8867C96.5049 84.7656 96.0698 85.5347 95.4985 86.1938C94.936 86.8442 94.2549 87.354 93.4551 87.7231C92.6641 88.0835 91.7676 88.2637 90.7656 88.2637C89.7637 88.2637 88.8628 88.0835 88.063 87.7231C87.2632 87.354 86.5776 86.8442 86.0063 86.1938C85.4438 85.5347 85.0132 84.7656 84.7144 83.8867C84.4155 83.0078 84.2661 82.0542 84.2661 81.0259ZM86.7051 80.7227V81.0259C86.7051 81.7378 86.7886 82.4102 86.9556 83.043C87.1226 83.667 87.373 84.2207 87.707 84.7041C88.0498 85.1875 88.4761 85.5698 88.9858 85.8511C89.4956 86.1235 90.0889 86.2598 90.7656 86.2598C91.4336 86.2598 92.0181 86.1235 92.519 85.8511C93.0288 85.5698 93.4507 85.1875 93.7847 84.7041C94.1187 84.2207 94.3691 83.667 94.5361 83.043C94.7119 82.4102 94.7998 81.7378 94.7998 81.0259V80.7227C94.7998 80.0195 94.7119 79.356 94.5361 78.7319C94.3691 78.0991 94.1143 77.541 93.7715 77.0576C93.4375 76.5654 93.0156 76.1787 92.5059 75.8975C92.0049 75.6162 91.416 75.4756 90.7393 75.4756C90.0713 75.4756 89.4824 75.6162 88.9727 75.8975C88.4717 76.1787 88.0498 76.5654 87.707 77.0576C87.373 77.541 87.1226 78.0991 86.9556 78.7319C86.7886 79.356 86.7051 80.0195 86.7051 80.7227ZM102.75 75.9766V88H100.311V73.7354H102.684L102.75 75.9766ZM107.206 73.6562L107.192 75.9238C106.99 75.8799 106.797 75.8535 106.612 75.8447C106.437 75.8271 106.234 75.8184 106.006 75.8184C105.443 75.8184 104.947 75.9062 104.516 76.082C104.085 76.2578 103.721 76.5039 103.422 76.8203C103.123 77.1367 102.886 77.5146 102.71 77.9541C102.543 78.3848 102.433 78.8594 102.38 79.3779L101.695 79.7734C101.695 78.9121 101.778 78.1035 101.945 77.3477C102.121 76.5918 102.389 75.9238 102.75 75.3438C103.11 74.7549 103.567 74.2979 104.121 73.9727C104.683 73.6387 105.351 73.4717 106.125 73.4717C106.3 73.4717 106.502 73.4937 106.731 73.5376C106.959 73.5728 107.118 73.6123 107.206 73.6562ZM117.41 68.8047L122.393 78.4419L127.39 68.8047H130.277L123.659 80.8281V88H121.114V80.8281L114.496 68.8047H117.41ZM130.857 81.0259V80.7227C130.857 79.6943 131.006 78.7407 131.305 77.8618C131.604 76.9741 132.035 76.2051 132.597 75.5547C133.16 74.8955 133.841 74.3857 134.641 74.0254C135.44 73.6562 136.337 73.4717 137.33 73.4717C138.332 73.4717 139.233 73.6562 140.033 74.0254C140.841 74.3857 141.527 74.8955 142.089 75.5547C142.661 76.2051 143.096 76.9741 143.395 77.8618C143.693 78.7407 143.843 79.6943 143.843 80.7227V81.0259C143.843 82.0542 143.693 83.0078 143.395 83.8867C143.096 84.7656 142.661 85.5347 142.089 86.1938C141.527 86.8442 140.846 87.354 140.046 87.7231C139.255 88.0835 138.358 88.2637 137.356 88.2637C136.354 88.2637 135.454 88.0835 134.654 87.7231C133.854 87.354 133.168 86.8442 132.597 86.1938C132.035 85.5347 131.604 84.7656 131.305 83.8867C131.006 83.0078 130.857 82.0542 130.857 81.0259ZM133.296 80.7227V81.0259C133.296 81.7378 133.379 82.4102 133.546 83.043C133.713 83.667 133.964 84.2207 134.298 84.7041C134.641 85.1875 135.067 85.5698 135.577 85.8511C136.086 86.1235 136.68 86.2598 137.356 86.2598C138.024 86.2598 138.609 86.1235 139.11 85.8511C139.62 85.5698 140.042 85.1875 140.375 84.7041C140.709 84.2207 140.96 83.667 141.127 83.043C141.303 82.4102 141.391 81.7378 141.391 81.0259V80.7227C141.391 80.0195 141.303 79.356 141.127 78.7319C140.96 78.0991 140.705 77.541 140.362 77.0576C140.028 76.5654 139.606 76.1787 139.097 75.8975C138.596 75.6162 138.007 75.4756 137.33 75.4756C136.662 75.4756 136.073 75.6162 135.563 75.8975C135.062 76.1787 134.641 76.5654 134.298 77.0576C133.964 77.541 133.713 78.0991 133.546 78.7319C133.379 79.356 133.296 80.0195 133.296 80.7227ZM155.629 84.7041V73.7354H158.081V88H155.748L155.629 84.7041ZM156.09 81.6982L157.105 81.6719C157.105 82.6211 157.004 83.5 156.802 84.3086C156.609 85.1084 156.292 85.8027 155.853 86.3916C155.414 86.9805 154.838 87.4419 154.126 87.7759C153.414 88.1011 152.548 88.2637 151.529 88.2637C150.834 88.2637 150.197 88.1626 149.617 87.9604C149.046 87.7583 148.554 87.4463 148.141 87.0244C147.728 86.6025 147.407 86.0532 147.178 85.3765C146.958 84.6997 146.849 83.8867 146.849 82.9375V73.7354H149.288V82.9639C149.288 83.6055 149.358 84.1372 149.499 84.5591C149.648 84.9722 149.846 85.3018 150.092 85.5479C150.347 85.7852 150.628 85.9521 150.936 86.0488C151.252 86.1455 151.577 86.1938 151.911 86.1938C152.948 86.1938 153.77 85.9961 154.376 85.6006C154.983 85.1963 155.418 84.6558 155.682 83.979C155.954 83.2935 156.09 82.5332 156.09 81.6982ZM164.238 75.9766V88H161.799V73.7354H164.172L164.238 75.9766ZM168.694 73.6562L168.681 75.9238C168.479 75.8799 168.285 75.8535 168.101 75.8447C167.925 75.8271 167.723 75.8184 167.494 75.8184C166.932 75.8184 166.435 75.9062 166.004 76.082C165.574 76.2578 165.209 76.5039 164.91 76.8203C164.611 77.1367 164.374 77.5146 164.198 77.9541C164.031 78.3848 163.921 78.8594 163.869 79.3779L163.183 79.7734C163.183 78.9121 163.267 78.1035 163.434 77.3477C163.609 76.5918 163.877 75.9238 164.238 75.3438C164.598 74.7549 165.055 74.2979 165.609 73.9727C166.171 73.6387 166.839 73.4717 167.613 73.4717C167.789 73.4717 167.991 73.4937 168.219 73.5376C168.448 73.5728 168.606 73.6123 168.694 73.6562ZM188.245 83.1484C188.245 82.7002 188.175 82.3047 188.034 81.9619C187.902 81.6104 187.665 81.2939 187.322 81.0127C186.988 80.7314 186.522 80.4634 185.925 80.2085C185.336 79.9536 184.589 79.6943 183.684 79.4307C182.734 79.1494 181.877 78.8374 181.113 78.4946C180.348 78.1431 179.693 77.7432 179.148 77.2949C178.604 76.8467 178.186 76.3325 177.896 75.7524C177.606 75.1724 177.461 74.5088 177.461 73.7617C177.461 73.0146 177.615 72.3247 177.922 71.6919C178.23 71.0591 178.669 70.5098 179.241 70.0439C179.821 69.5693 180.511 69.2002 181.311 68.9365C182.11 68.6729 183.002 68.541 183.987 68.541C185.428 68.541 186.65 68.8179 187.652 69.3716C188.663 69.9165 189.432 70.6328 189.959 71.5205C190.486 72.3994 190.75 73.3398 190.75 74.3418H188.219C188.219 73.6211 188.065 72.9839 187.757 72.4302C187.45 71.8677 186.984 71.4282 186.36 71.1118C185.736 70.7866 184.945 70.624 183.987 70.624C183.082 70.624 182.334 70.7603 181.746 71.0327C181.157 71.3052 180.717 71.6743 180.427 72.1401C180.146 72.606 180.005 73.1377 180.005 73.7354C180.005 74.1396 180.089 74.5088 180.256 74.8428C180.432 75.168 180.7 75.4712 181.06 75.7524C181.429 76.0337 181.895 76.293 182.458 76.5303C183.029 76.7676 183.71 76.9961 184.501 77.2158C185.591 77.5234 186.531 77.8662 187.322 78.2441C188.113 78.6221 188.764 79.0483 189.273 79.5229C189.792 79.9888 190.174 80.5205 190.42 81.1182C190.675 81.707 190.803 82.375 190.803 83.1221C190.803 83.9043 190.645 84.6118 190.328 85.2446C190.012 85.8774 189.559 86.418 188.97 86.8662C188.381 87.3145 187.674 87.6616 186.848 87.9077C186.03 88.145 185.116 88.2637 184.105 88.2637C183.218 88.2637 182.343 88.1406 181.482 87.8945C180.629 87.6484 179.852 87.2793 179.148 86.7871C178.454 86.2949 177.896 85.6885 177.474 84.9678C177.061 84.2383 176.854 83.3945 176.854 82.4365H179.386C179.386 83.0957 179.513 83.6626 179.768 84.1372C180.023 84.603 180.37 84.9897 180.81 85.2974C181.258 85.605 181.763 85.8335 182.326 85.9829C182.897 86.1235 183.49 86.1938 184.105 86.1938C184.993 86.1938 185.745 86.0708 186.36 85.8247C186.975 85.5786 187.441 85.2271 187.757 84.77C188.083 84.313 188.245 83.7725 188.245 83.1484ZM199.649 73.7354V75.6074H191.937V73.7354H199.649ZM194.547 70.2681H196.986V84.4668C196.986 84.9502 197.061 85.3149 197.21 85.561C197.359 85.8071 197.553 85.9697 197.79 86.0488C198.027 86.1279 198.282 86.1675 198.555 86.1675C198.757 86.1675 198.968 86.1499 199.188 86.1147C199.416 86.0708 199.587 86.0356 199.702 86.0093L199.715 88C199.521 88.0615 199.267 88.1187 198.95 88.1714C198.643 88.2329 198.269 88.2637 197.83 88.2637C197.232 88.2637 196.683 88.145 196.182 87.9077C195.681 87.6704 195.281 87.2749 194.982 86.7212C194.692 86.1587 194.547 85.4028 194.547 84.4536V70.2681ZM201.6 81.0259V80.7227C201.6 79.6943 201.75 78.7407 202.048 77.8618C202.347 76.9741 202.778 76.2051 203.34 75.5547C203.903 74.8955 204.584 74.3857 205.384 74.0254C206.184 73.6562 207.08 73.4717 208.073 73.4717C209.075 73.4717 209.976 73.6562 210.776 74.0254C211.584 74.3857 212.27 74.8955 212.833 75.5547C213.404 76.2051 213.839 76.9741 214.138 77.8618C214.437 78.7407 214.586 79.6943 214.586 80.7227V81.0259C214.586 82.0542 214.437 83.0078 214.138 83.8867C213.839 84.7656 213.404 85.5347 212.833 86.1938C212.27 86.8442 211.589 87.354 210.789 87.7231C209.998 88.0835 209.102 88.2637 208.1 88.2637C207.098 88.2637 206.197 88.0835 205.397 87.7231C204.597 87.354 203.912 86.8442 203.34 86.1938C202.778 85.5347 202.347 84.7656 202.048 83.8867C201.75 83.0078 201.6 82.0542 201.6 81.0259ZM204.039 80.7227V81.0259C204.039 81.7378 204.123 82.4102 204.29 83.043C204.457 83.667 204.707 84.2207 205.041 84.7041C205.384 85.1875 205.81 85.5698 206.32 85.8511C206.83 86.1235 207.423 86.2598 208.1 86.2598C208.768 86.2598 209.352 86.1235 209.853 85.8511C210.363 85.5698 210.785 85.1875 211.119 84.7041C211.453 84.2207 211.703 83.667 211.87 83.043C212.046 82.4102 212.134 81.7378 212.134 81.0259V80.7227C212.134 80.0195 212.046 79.356 211.87 78.7319C211.703 78.0991 211.448 77.541 211.105 77.0576C210.771 76.5654 210.35 76.1787 209.84 75.8975C209.339 75.6162 208.75 75.4756 208.073 75.4756C207.405 75.4756 206.816 75.6162 206.307 75.8975C205.806 76.1787 205.384 76.5654 205.041 77.0576C204.707 77.541 204.457 78.0991 204.29 78.7319C204.123 79.356 204.039 80.0195 204.039 80.7227ZM220.083 75.9766V88H217.645V73.7354H220.018L220.083 75.9766ZM224.54 73.6562L224.526 75.9238C224.324 75.8799 224.131 75.8535 223.946 75.8447C223.771 75.8271 223.568 75.8184 223.34 75.8184C222.777 75.8184 222.281 75.9062 221.85 76.082C221.419 76.2578 221.055 76.5039 220.756 76.8203C220.457 77.1367 220.22 77.5146 220.044 77.9541C219.877 78.3848 219.767 78.8594 219.714 79.3779L219.029 79.7734C219.029 78.9121 219.112 78.1035 219.279 77.3477C219.455 76.5918 219.723 75.9238 220.083 75.3438C220.444 74.7549 220.901 74.2979 221.455 73.9727C222.017 73.6387 222.685 73.4717 223.458 73.4717C223.634 73.4717 223.836 73.4937 224.065 73.5376C224.293 73.5728 224.452 73.6123 224.54 73.6562ZM229.444 73.7354V88H226.992V73.7354H229.444ZM226.807 69.9517C226.807 69.5562 226.926 69.2222 227.163 68.9497C227.409 68.6772 227.77 68.541 228.244 68.541C228.71 68.541 229.066 68.6772 229.312 68.9497C229.567 69.2222 229.694 69.5562 229.694 69.9517C229.694 70.3296 229.567 70.6548 229.312 70.9272C229.066 71.1909 228.71 71.3228 228.244 71.3228C227.77 71.3228 227.409 71.1909 227.163 70.9272C226.926 70.6548 226.807 70.3296 226.807 69.9517ZM239.279 88.2637C238.286 88.2637 237.385 88.0967 236.576 87.7627C235.776 87.4199 235.086 86.9409 234.506 86.3257C233.935 85.7104 233.496 84.981 233.188 84.1372C232.88 83.2935 232.727 82.3706 232.727 81.3687V80.8149C232.727 79.6548 232.898 78.6221 233.241 77.7168C233.583 76.8027 234.049 76.0293 234.638 75.3965C235.227 74.7637 235.895 74.2847 236.642 73.9595C237.389 73.6343 238.163 73.4717 238.962 73.4717C239.982 73.4717 240.861 73.6475 241.599 73.999C242.346 74.3506 242.957 74.8428 243.432 75.4756C243.906 76.0996 244.258 76.8379 244.486 77.6904C244.715 78.5342 244.829 79.457 244.829 80.459V81.5532H234.177V79.5625H242.39V79.3779C242.355 78.7451 242.223 78.1299 241.995 77.5322C241.775 76.9346 241.423 76.4424 240.94 76.0557C240.457 75.6689 239.797 75.4756 238.962 75.4756C238.409 75.4756 237.899 75.5942 237.433 75.8315C236.967 76.0601 236.567 76.4028 236.233 76.8599C235.899 77.3169 235.64 77.875 235.456 78.5342C235.271 79.1934 235.179 79.9536 235.179 80.8149V81.3687C235.179 82.0454 235.271 82.6826 235.456 83.2803C235.649 83.8691 235.926 84.3877 236.286 84.8359C236.655 85.2842 237.099 85.6357 237.618 85.8906C238.145 86.1455 238.743 86.2729 239.411 86.2729C240.272 86.2729 241.001 86.0972 241.599 85.7456C242.197 85.394 242.72 84.9238 243.168 84.335L244.645 85.5083C244.337 85.9741 243.946 86.418 243.471 86.8398C242.997 87.2617 242.412 87.6045 241.718 87.8682C241.032 88.1318 240.219 88.2637 239.279 88.2637ZM255.982 84.2163C255.982 83.8647 255.903 83.5396 255.745 83.2407C255.596 82.9331 255.284 82.6562 254.809 82.4102C254.343 82.1553 253.64 81.9355 252.7 81.751C251.909 81.584 251.192 81.3862 250.551 81.1577C249.918 80.9292 249.377 80.6523 248.929 80.3271C248.49 80.002 248.151 79.6196 247.914 79.1802C247.677 78.7407 247.558 78.2266 247.558 77.6377C247.558 77.0752 247.681 76.5435 247.927 76.0425C248.182 75.5415 248.538 75.0977 248.995 74.7109C249.461 74.3242 250.019 74.021 250.669 73.8013C251.32 73.5815 252.045 73.4717 252.845 73.4717C253.987 73.4717 254.963 73.6738 255.771 74.0781C256.58 74.4824 257.2 75.0229 257.63 75.6997C258.061 76.3677 258.276 77.1104 258.276 77.9277H255.837C255.837 77.5322 255.719 77.1499 255.481 76.7808C255.253 76.4028 254.915 76.0908 254.466 75.8447C254.027 75.5986 253.486 75.4756 252.845 75.4756C252.168 75.4756 251.619 75.5811 251.197 75.792C250.784 75.9941 250.48 76.2534 250.287 76.5698C250.103 76.8862 250.01 77.2202 250.01 77.5718C250.01 77.8354 250.054 78.0728 250.142 78.2837C250.239 78.4858 250.406 78.6748 250.643 78.8506C250.88 79.0176 251.214 79.1758 251.645 79.3252C252.076 79.4746 252.625 79.624 253.293 79.7734C254.462 80.0371 255.424 80.3535 256.18 80.7227C256.936 81.0918 257.499 81.5444 257.868 82.0806C258.237 82.6167 258.421 83.2671 258.421 84.0317C258.421 84.6558 258.29 85.2271 258.026 85.7456C257.771 86.2642 257.397 86.7124 256.905 87.0903C256.422 87.4595 255.842 87.7495 255.165 87.9604C254.497 88.1626 253.746 88.2637 252.911 88.2637C251.654 88.2637 250.59 88.0396 249.72 87.5913C248.85 87.1431 248.191 86.563 247.743 85.8511C247.294 85.1392 247.07 84.3877 247.07 83.5967H249.522C249.558 84.2646 249.751 84.7964 250.103 85.1919C250.454 85.5786 250.885 85.8555 251.395 86.0225C251.904 86.1807 252.41 86.2598 252.911 86.2598C253.579 86.2598 254.137 86.1719 254.585 85.9961C255.042 85.8203 255.389 85.5786 255.626 85.271C255.864 84.9634 255.982 84.6118 255.982 84.2163Z" fill="white"/>
</svg>
