<svg width="55" height="55" viewBox="0 0 55 55" fill="none" xmlns="http://www.w3.org/2000/svg">
<g opacity="0.8">
<path d="M15.4775 55H9.20451V54.2142L10.988 53.9195V44.1947H4.51V53.9195L6.2935 54.2142V55H0V54.2142L1.7835 53.9195V34.208L0 33.9133V33.1274H6.2935V33.9133L4.51 34.208V43.0159H10.988V34.208L9.20451 33.9133V33.1274H15.4775V33.9133L13.694 34.208V53.9195L15.4775 54.2142V55Z" fill="#D2B58C"/>
<path d="M30.838 55H24.811V54.2142L26.4715 53.9195L24.5855 46.3885H19.9729L18.333 53.3629L20.1574 54.2142V55H15.8729V54.2142L17.4309 53.3629L22.392 33.1274H23.827L29.2595 53.9195L30.838 54.2142V55ZM24.278 45.177L22.2689 37.2204L20.2599 45.177H24.278Z" fill="#D2B58C"/>
<path d="M37.1837 33.1274V33.8805L35.4002 34.208V53.9522L40.5047 53.854L41.5707 50.1213H42.2267L41.9807 55H30.8902V54.2142L32.6737 53.9195V34.208L30.8902 33.8805V33.1274H37.1837Z" fill="#D2B58C"/>
<path d="M49.3556 33.1274V33.8805L47.5721 34.208V53.9522L52.6766 53.854L53.7426 50.1213H54.3986L54.1526 55H43.0621V54.2142L44.8456 53.9195V34.208L43.0621 33.8805V33.1274H49.3556Z" fill="#D2B58C"/>
<path d="M16.9592 22.069H10.9322V21.2832L12.5927 20.9885L10.7067 13.4575H6.09415L4.45414 20.4319L6.27865 21.2832V22.069H1.99414V21.2832L3.55214 20.4319L8.51315 0.19646H9.94815L15.3807 20.9885L16.9592 21.2832V22.069ZM10.3992 12.246L8.39015 4.28938L6.38115 12.246H10.3992Z" fill="#D2B58C"/>
<path d="M21.4394 10.6416H22.1364C24.323 10.6416 25.4164 8.97169 25.4164 5.63186C25.4164 4.01652 25.2045 2.84867 24.7809 2.12832C24.3572 1.38614 23.6875 1.01505 22.7719 1.01505C22.1842 1.01505 21.74 1.0587 21.4394 1.14602V10.6416ZM21.0909 0.130974L23.3869 0.0327427C26.6395 0.0327427 28.2659 1.89912 28.2659 5.63186C28.2659 7.29086 27.8969 8.64425 27.1589 9.69204C26.4209 10.7398 25.4711 11.2637 24.3094 11.2637H23.8379C25.3959 11.5912 26.4619 12.3443 27.0359 13.523C27.6236 14.7018 27.9174 16.4918 27.9174 18.8929C27.9174 20.3773 28.1087 21.2832 28.4914 21.6106C28.6281 21.7416 28.8262 21.8071 29.0859 21.8071C29.3592 21.8071 29.7282 21.6325 30.1929 21.2832L30.2134 22.069C29.4754 22.5711 28.7237 22.8221 27.9584 22.8221C26.4277 22.8221 25.5052 21.9053 25.1909 20.0717C25.0816 19.3077 25.0269 18.3581 25.0269 17.223C25.0269 16.0661 24.979 15.182 24.8834 14.5708C24.8014 13.9378 24.6715 13.4248 24.4939 13.0319C24.0975 12.0714 23.3527 11.5912 22.2594 11.5912H21.4394V20.9885L22.9974 21.2832V22.069H17.2164V21.2832L18.7334 21.0213V1.21151L16.9704 0.818583V0C18.1184 0.0873159 19.1502 0.130974 20.0659 0.130974H21.0909Z" fill="#D2B58C"/>
<path d="M36.9983 22.069H30.7047V21.2832L32.4883 20.9885V1.27699L30.7047 0.982301V0.19646H36.9983V0.982301L35.2148 1.27699V20.9885L36.9983 21.2832V22.069Z" fill="#D2B58C"/>
<path d="M52.3537 22.069H46.3267V21.2832L47.9872 20.9885L46.1012 13.4575H41.4887L39.8487 20.4319L41.6732 21.2832V22.069H37.3887V21.2832L38.9467 20.4319L43.9077 0.19646H45.3427L50.7752 20.9885L52.3537 21.2832V22.069ZM45.7937 12.246L43.7847 4.28938L41.7757 12.246H45.7937Z" fill="#D2B58C"/>
</g>
</svg>
