<svg width="184" height="32" viewBox="0 0 184 32" fill="none" xmlns="http://www.w3.org/2000/svg">
<rect width="7.10646" height="7.10646" rx="2" transform="matrix(-0.707808 0.706405 -0.707808 -0.706405 183.999 16.146)" fill="#D2B58C"/>
<rect width="7.10646" height="7.10646" rx="2" transform="matrix(-0.707808 0.706405 -0.707808 -0.706405 10.0601 16.146)" fill="#D2B58C"/>
<path d="M178.884 16.5734H106.97" stroke="#D2B58C" stroke-width="3" stroke-linecap="square"/>
<path d="M76.8585 16.5734L3.14685 16.5734" stroke="#D2B58C" stroke-width="3" stroke-linecap="square"/>
<rect x="-2.12342" y="-1.78814e-07" width="19.0018" height="19.0018" rx="6.5" transform="matrix(-0.707808 0.706405 -0.707808 -0.706405 103.928 17.9153)" fill="#101318" stroke="#D2B58C" stroke-width="3"/>
<rect x="-2.12342" y="-1.78814e-07" width="12.2681" height="12.2681" rx="6.13406" transform="matrix(-0.707808 0.706405 -0.707808 -0.706405 146.982 18.0929)" fill="#101318" stroke="#D2B58C" stroke-width="3"/>
<rect x="-2.12342" y="-1.78814e-07" width="12.2681" height="12.2681" rx="6.13406" transform="matrix(-0.707808 0.706405 -0.707808 -0.706405 51.2462 18.0929)" fill="#101318" stroke="#D2B58C" stroke-width="3"/>
</svg>
