<svg width="562" height="21" viewBox="0 0 562 21" fill="none" xmlns="http://www.w3.org/2000/svg">
<path d="M280.946 11.3987C275.964 14.5132 270.505 16.8751 264.763 18.4001C258.917 19.8731 252.833 20.2907 246.826 19.6311C234.661 18.2975 223.495 13.3735 212.84 8.32117C210.143 7.03886 207.446 5.62832 204.91 4.62812C202.267 3.5731 199.479 2.88224 196.63 2.57642C193.847 2.29547 191.034 2.61996 188.403 3.52533C187.081 4.05025 185.793 4.64972 184.546 5.32056C183.198 5.98737 181.849 6.62852 180.5 7.24403C169.603 12.4 157.608 15.1111 145.436 15.1687L73.7969 14.8097L38.0043 14.425L0 13.7325L38.0043 13.0401L73.7969 12.6554L145.382 12.322C157.161 12.3594 168.791 9.81438 179.367 4.88458C180.689 4.32036 182.065 3.67921 183.332 3.03805C184.684 2.32468 186.08 1.69089 187.513 1.14023C190.518 0.120351 193.732 -0.222042 196.9 0.140033C199.994 0.528762 203.012 1.34974 205.854 2.57642C208.687 3.7305 211.249 5.14104 213.946 6.52594C224.412 11.7834 235.228 16.7844 246.961 18.4001C252.803 19.2345 258.758 19.0257 264.52 17.7846C270.292 16.4247 275.825 14.2736 280.946 11.3987Z" fill="#CAA785"/>
<path d="M280.945 11.399C286.099 14.2427 291.659 16.3593 297.452 17.6823C303.214 18.9246 309.169 19.1334 315.012 18.2978C326.718 16.7078 337.561 11.6811 348.026 6.42365C350.642 5.14135 353.34 3.62822 356.037 2.57673C358.884 1.38216 361.902 0.59567 364.992 0.242922C368.16 -0.116342 371.372 0.22598 374.378 1.24312C375.809 1.79892 377.205 2.43258 378.559 3.14094C379.854 3.7821 381.256 4.42325 382.524 4.98747C393.099 9.92077 404.73 12.466 416.509 12.4249L488.202 12.6557L523.995 13.0404L561.999 13.7328L523.995 14.4253L488.202 14.81L416.617 15.1177C404.446 15.0601 392.45 12.349 381.553 7.19304C380.186 6.57753 378.838 5.93638 377.507 5.26958C376.248 4.60337 374.952 4.00404 373.623 3.47434C370.946 2.56671 368.084 2.25952 365.261 2.57673C362.419 2.89925 359.639 3.60744 357.008 4.67971C354.311 5.67992 351.613 7.09046 348.916 8.37277C338.127 13.502 327.122 18.3491 315.066 19.6827C309.058 20.3423 302.974 19.9247 297.129 18.4517C291.386 16.9034 285.928 14.5247 280.945 11.399Z" fill="#CAA785"/>
<path d="M280.945 9.21856C285.937 6.12071 291.393 3.7601 297.129 2.21715C302.974 0.744152 309.058 0.326595 315.066 0.986132C327.122 2.31973 338.262 7.2438 348.916 12.3218C351.613 13.6041 354.311 14.8864 357.008 16.0148C359.645 17.0672 362.422 17.7664 365.261 18.0921C368.044 18.386 370.86 18.0612 373.488 17.1432C374.817 16.6135 376.113 16.0142 377.372 15.348C378.703 14.6812 380.051 14.04 381.418 13.4245C392.315 8.26856 404.311 5.5575 416.482 5.49986L488.202 5.80762L523.995 6.21796L561.999 6.88476L523.914 7.70543L488.202 7.9619L416.617 8.2953C404.839 8.26704 393.212 10.8116 382.632 15.7327C381.283 16.3311 379.962 16.9466 378.667 17.5792C377.313 18.2876 375.917 18.9212 374.486 19.477C371.479 20.4895 368.27 20.8402 365.1 20.5029C361.978 20.1354 358.927 19.3496 356.037 18.1691C353.178 16.9894 350.642 15.6045 347.945 14.2196C337.48 8.93645 326.637 3.96109 314.931 2.31973C309.088 1.49729 303.135 1.70594 297.372 2.93524C291.61 4.27651 286.079 6.39225 280.945 9.21856Z" fill="#CAA785"/>
<path d="M280.946 9.21856C275.797 6.38552 270.247 4.26953 264.466 2.93524C258.702 1.70711 252.75 1.49846 246.907 2.31973C235.174 3.9098 224.358 8.93645 213.892 14.2196C211.195 15.5275 208.687 16.9894 205.801 18.1691C202.962 19.3412 199.967 20.1352 196.9 20.5285C193.729 20.8695 190.519 20.5186 187.513 19.5027C186.107 18.9408 184.738 18.2985 183.413 17.5792C182.101 16.9466 180.779 16.3311 179.448 15.7327C168.867 10.8142 157.241 8.26979 145.463 8.2953L73.7969 7.9619L38.0043 7.70543L0 6.88476L38.0043 6.21796L73.7969 5.80762L145.382 5.49986C157.554 5.5575 169.549 8.26856 180.446 13.4245C181.795 14.04 183.144 14.6812 184.492 15.348C185.739 16.0188 187.027 16.6183 188.349 17.1432C190.977 18.0612 193.793 18.386 196.576 18.0921C199.47 17.7781 202.302 17.0788 204.991 16.0148C207.689 14.989 210.224 13.6041 212.921 12.3218C223.71 7.19251 234.715 2.31973 246.799 0.986132C252.806 0.326595 258.89 0.744152 264.736 2.21715C270.483 3.75053 275.95 6.11169 280.946 9.21856Z" fill="#CAA785"/>
<path d="M284.264 10.2703C284.275 10.9897 284.059 11.6959 283.646 12.2983C283.232 12.9008 282.639 13.3722 281.941 13.6522C281.244 13.9322 280.475 14.0082 279.733 13.8703C278.99 13.7324 278.307 13.387 277.772 12.8782C277.237 12.3694 276.874 11.7204 276.729 11.0142C276.584 10.308 276.664 9.57668 276.958 8.91387C277.253 8.25106 277.748 7.68686 278.382 7.29345C279.016 6.90004 279.758 6.6953 280.515 6.70544C281.505 6.7187 282.45 7.09853 283.151 7.76421C283.851 8.42989 284.25 9.32894 284.264 10.2703Z" fill="#CAA785"/>
<path d="M225.086 10.2708C225.086 11.2853 224.77 12.277 224.177 13.1205C223.584 13.964 222.742 14.6214 221.756 15.0096C220.77 15.3979 219.685 15.4994 218.639 15.3015C217.593 15.1036 216.631 14.6151 215.877 13.8978C215.122 13.1804 214.609 12.2665 214.401 11.2715C214.192 10.2765 214.299 9.24521 214.708 8.30797C215.116 7.37072 215.807 6.56964 216.694 6.00603C217.581 5.44243 218.624 5.1416 219.691 5.1416C221.122 5.1416 222.494 5.682 223.506 6.64392C224.518 7.60584 225.086 8.91048 225.086 10.2708Z" fill="#CAA785"/>
<path d="M174.811 10.2704C174.811 11.6055 174.394 12.9106 173.613 14.0203C172.833 15.1301 171.723 15.9946 170.425 16.5043C169.127 17.0141 167.7 17.1461 166.323 16.8838C164.946 16.6215 163.682 15.9765 162.691 15.0306C161.7 14.0848 161.027 12.8805 160.756 11.5705C160.485 10.2604 160.63 8.90341 161.171 7.67139C161.712 6.43937 162.625 5.38773 163.795 4.64968C164.965 3.91163 166.34 3.52036 167.744 3.52544C169.621 3.53222 171.418 4.24585 172.742 5.51003C174.067 6.77422 174.811 8.48595 174.811 10.2704Z" fill="#CAA785"/>
<path d="M335.162 10.2708C335.162 9.25638 335.478 8.26469 336.071 7.42119C336.664 6.57769 337.507 5.92026 338.492 5.53204C339.478 5.14382 340.563 5.04225 341.609 5.24016C342.655 5.43807 343.617 5.92659 344.371 6.64392C345.126 7.36126 345.639 8.2752 345.847 9.27018C346.056 10.2652 345.949 11.2965 345.54 12.2337C345.132 13.171 344.441 13.972 343.554 14.5356C342.667 15.0993 341.624 15.4001 340.557 15.4001C339.126 15.4001 337.754 14.8597 336.742 13.8978C335.73 12.9358 335.162 11.6312 335.162 10.2708Z" fill="#CAA785"/>
<path d="M385.437 10.2703C385.437 8.94132 385.852 7.64221 386.628 6.53723C387.405 5.43224 388.509 4.57101 389.8 4.06244C391.091 3.55388 392.512 3.42081 393.883 3.68008C395.254 3.93934 396.513 4.57929 397.501 5.51901C398.49 6.45872 399.163 7.65598 399.435 8.9594C399.708 10.2628 399.568 11.6138 399.033 12.8416C398.498 14.0694 397.592 15.1188 396.43 15.8572C395.268 16.5955 393.902 16.9896 392.504 16.9896C390.63 16.9896 388.832 16.2816 387.507 15.0215C386.182 13.7614 385.437 12.0523 385.437 10.2703Z" fill="#CAA785"/>
</svg>
